<svg xmlns="http://www.w3.org/2000/svg" data-name="Calque 1" viewBox="0 0 6.56 6.56">
  <defs/>
  <path d="M3.28 0H1.93a2.59 2.59 0 00-.8.15 1.67 1.67 0 00-.58.4 1.76 1.76 0 00-.38.58 2.59 2.59 0 00-.15.8v2.7a2.59 2.59 0 00.15.8A1.76 1.76 0 00.55 6a1.76 1.76 0 00.58.38 2.59 2.59 0 00.8.15h2.7a2.59 2.59 0 00.8-.15 1.7 1.7 0 001-1 2.59 2.59 0 00.15-.8V3.23 1.88a2.59 2.59 0 00-.15-.8A1.67 1.67 0 006 .55a1.62 1.62 0 00-.57-.38 2.32 2.32 0 00-.8-.17H3.28m0 .59H4.6a1.82 1.82 0 01.61.11 1 1 0 01.38.3 1 1 0 01.25.38A2 2 0 016 2V4.61a2.11 2.11 0 01-.11.6 1 1 0 01-.25.38 1 1 0 01-.38.25A1.82 1.82 0 014.6 6H2a1.88 1.88 0 01-.61-.11.94.94 0 01-.39-.3.9.9 0 01-.25-.38 1.74 1.74 0 01-.11-.6V3.28 1.95a1.57 1.57 0 01.11-.6A.9.9 0 011 1a.94.94 0 01.34-.28A2.21 2.21 0 012 .61h1.33"/>
  <path d="M3.28 4.37a1.09 1.09 0 111.09-1.09 1.09 1.09 0 01-1.09 1.09m0-2.77A1.68 1.68 0 105 3.28 1.69 1.69 0 003.28 1.6M5.42 1.53a.39.39 0 11-.78 0 .39.39 0 11.78 0"/>
</svg>
