<svg xmlns="http://www.w3.org/2000/svg" data-name="Calque 1" viewBox="0 0 850.34 278.49">
  <defs/>
  <defs>
    <clipPath id="a">
      <path fill="none" d="M0 0h850.34v278.49H0z"/>
    </clipPath>
  </defs>
  <path d="M0 0v276.59h30.66v-134.1h148.65v134.3h30.81V.02h-31.07v128.94H30.33V0H0z"/>
  <g clip-path="url(#a)">
    <path d="M737 7.58C733.86.05 732.89 0 726.23 0h-28s3.36 8 3.94 9.41c1.4 3.53 2.09 6.67-.12 11.86C672.76 90.16 601.4 258.9 601.4 258.9c-7.92-.37-13.74-4-18.76-10.89-7.36-10.14-24.29-66.25-26.14-71.49-7-20-16.6-30.42-29.53-39.64 20-14.31 34.09-33.82 37.79-52.82 5.3-27.11-2.62-62.31-32.52-76A82.55 82.55 0 00499 .27C483.69 0 458.5 0 438.32 0H415v276.64h30.54V13.11c7.32.07 28.66.28 51.78.65 11.1.19 22.12 5.72 26.84 10.84 12.84 13.95 17.68 38.6 13.17 58.63-4.13 18.35-15.59 36-29.89 41.79-10.46 4.21-24.91 4-34.51 3.88h-7.05v13.62h2.66c9.95 0 16.14-.32 26.64 1.21 13.79 2 23.57 12 29.88 26.55 2.68 6.17 6.23 16.57 10 27.58C542 218.07 549.82 241 557 252.64c10.32 16.78 22.08 25.23 40.81 25.82a89.86 89.86 0 0019-1.74s35.43-83.63 40.92-96.79c.86-2 1.43-2.44 3.58-2.44h109.05c2.25 0 2.88.45 3.81 2.68 12.49 29.73 26 61.69 38.73 91.33.67 1.55 2.52 5.14 5.35 5.22 7.06.22 32.09 0 32.09 0S764.2 73 737 7.58M767.33 164H664.74l51.12-122zM391.53 271c-1.54-7.23-4.75-7.77-8.75-7.77-.07 0-98.62.11-113.2.1V142.49h108.54V129H269.66V13.53s95.8 0 113.77-.09c1.93 0 5.93-1.17 6.85-3.88S392.62 0 392.62 0H238.76v276.72h153.93s-.39-2.16-1.16-5.76"/>
  </g>
</svg>
