<svg xmlns="http://www.w3.org/2000/svg" data-name="Layer 1" viewBox="0 0 12.95 16.31">
  <defs/>
  <path d="M11.01 6.53c-1.2-.11-3.24.78-3.24 4.62h-.76a11.81 11.81 0 01.63-4C8.29 5.52 9.4 3.41 6.46.04 3.52 3.41 4.64 5.52 5.28 7.15a11.94 11.94 0 01.64 4h-.79c0-3.84-2-4.73-3.25-4.62-2.66.24-2.47 4.48.06 4.45-.25-.7 0-1.49.6-1.61 1.79-.41 1.77 1.78 1.77 1.78H3.22v1.36h2.7A1.79 1.79 0 014.7 14c.17.49 1 .68 1 .68a3.08 3.08 0 00.81 1.63 3.14 3.14 0 00.82-1.63s.77-.19 1-.68a1.77 1.77 0 01-1.22-1.49h2.64v-1.34H8.66s0-2.19 1.78-1.78a1.19 1.19 0 01.59 1.61c2.48.01 2.66-4.23-.02-4.47z" data-name="fleur icon"/>
</svg>
