<svg xmlns="http://www.w3.org/2000/svg" id="Layer_1" data-name="Layer 1" viewBox="0 0 59.1 111.1">
  <defs/>
  <defs/>
  <path d="M42.8 76.9a23.39 23.39 0 003-11c0-.9-.1-1.7-.1-2.3V43.7a20.34 20.34 0 01.1-2.2 22.72 22.72 0 00-1.6-8 23.5 23.5 0 00-9.1-11.1c-4-2.3-7.8-3.5-11.2-3.5H0V111h17.4V88.5c0-.1 0-.1.1-.1H21a16.23 16.23 0 012.1.1 32 32 0 004.5-.5 23.6 23.6 0 0010.9-5.6 26.88 26.88 0 004.3-5.5zm-14.3-13c0 2.1-.2 3.6-.7 4.4a5.33 5.33 0 01-3 2.4c0 .3-1.4.4-4.3.4h-3c-.1 0-.1 0-.1-.1l.1-34.6h3.8c2.1 0 3.6.2 4.4.7a5.33 5.33 0 012.4 3c.3 0 .4 1.4.4 4.3zM28.5 102.4h30.6v8.7H28.5zM34.5 0L3.9 3.1v8.8l30.6-3.2V0z" class="cls-1"/>
</svg>
