<svg aria-hidden="true" style="position: absolute; width: 0; height: 0; overflow: hidden;" version="1.1" xmlns="http://www.w3.org/2000/svg" xmlns:xlink="http://www.w3.org/1999/xlink">
<defs>
<symbol id="icon-plus" viewBox="0 0 32 32">
<path d="M14.588 0h2.353v32h-2.353v-32z"></path>
<path d="M0 14.588h32v2.353h-32v-2.353z"></path>
</symbol>
<symbol id="icon-arrow-right" viewBox="0 0 74 32">
<path d="M57.69 32l-1.803-1.352 14.423-14.423-14.423-14.423 1.803-1.803 16.225 16.225z"></path>
<path d="M0 14.873h72.113v2.254h-72.113v-2.254z"></path>
</symbol>
<symbol id="icon-arrow-left" viewBox="0 0 74 32">
<path d="M16.216 0l1.803 1.352-14.423 14.423 14.423 14.423-1.803 1.803-16.225-16.225z"></path>
<path d="M73.906 17.127h-72.113v-2.254h72.113v2.254z"></path>
</symbol>
<symbol id="icon-facebook" viewBox="0 0 15 32">
<path d="M14.861 10.356h-5.178v-3.314c-0.010-0.063-0.016-0.135-0.016-0.209 0-0.744 0.603-1.346 1.346-1.346 0.024 0 0.048 0.001 0.071 0.002l-0.003-0h3.573v-5.489h-5.178c-0.036-0.001-0.079-0.001-0.121-0.001-3.432 0-6.214 2.782-6.214 6.214 0 0.164 0.006 0.327 0.019 0.489l-0.001-0.021v3.676h-3.159v5.644h3.159v16h6.628v-16h4.505z"></path>
</symbol>
<symbol id="icon-instagram" viewBox="0 0 32 32">
<path d="M16 0h-6.585c-1.41 0.040-2.746 0.305-3.99 0.76l0.088-0.028c-1.109 0.465-2.052 1.126-2.825 1.947l-0.004 0.004c-0.778 0.789-1.405 1.729-1.833 2.772l-0.021 0.057c-0.427 1.157-0.692 2.492-0.731 3.885l-0 0.018v13.171c0.040 1.41 0.305 2.746 0.76 3.99l-0.028-0.088c0.454 1.081 1.080 2.005 1.854 2.781l-0-0c0.789 0.778 1.729 1.405 2.772 1.833l0.057 0.021c1.157 0.427 2.492 0.692 3.885 0.731l0.018 0h13.171c1.41-0.040 2.746-0.305 3.99-0.76l-0.088 0.028c2.264-0.859 4.019-2.615 4.859-4.821l0.019-0.057c0.427-1.157 0.692-2.492 0.731-3.885l0-0.018v-13.171c-0.040-1.41-0.305-2.746-0.76-3.99l0.028 0.088c-0.533-1.021-1.237-1.881-2.083-2.574l-0.014-0.011c-0.766-0.79-1.692-1.419-2.727-1.835l-0.053-0.019c-1.151-0.482-2.485-0.782-3.884-0.829l-0.018-0.001h-6.585zM16 2.878h6.439c1.070 0.008 2.092 0.204 3.037 0.557l-0.061-0.020c0.745 0.341 1.367 0.838 1.845 1.452l0.008 0.011c0.531 0.505 0.947 1.125 1.208 1.82l0.011 0.034c0.398 0.884 0.675 1.909 0.777 2.985l0.003 0.039v12.732c-0.040 1.059-0.233 2.060-0.558 2.999l0.022-0.072c-0.273 0.729-0.689 1.349-1.217 1.852l-0.002 0.002c-0.505 0.531-1.125 0.947-1.82 1.208l-0.034 0.011c-0.943 0.438-2.041 0.72-3.198 0.78l-0.022 0.001h-12.683c-1.071-0.014-2.092-0.21-3.039-0.557l0.064 0.020c-0.771-0.323-1.412-0.823-1.894-1.452l-0.008-0.011c-0.546-0.494-0.966-1.117-1.21-1.823l-0.009-0.031c-0.335-0.869-0.531-1.874-0.537-2.924v-12.978c-0.001-0.032-0.001-0.070-0.001-0.109 0-1.015 0.197-1.983 0.556-2.87l-0.018 0.051c0.275-0.679 0.691-1.252 1.214-1.703l0.006-0.005c0.436-0.575 0.992-1.037 1.632-1.354l0.027-0.012c0.959-0.326 2.064-0.521 3.212-0.537l0.008-0h6.488z"></path>
<path d="M16 21.317c-2.937 0-5.317-2.381-5.317-5.317s2.381-5.317 5.317-5.317c2.937 0 5.317 2.381 5.317 5.317v0c0 2.937-2.381 5.317-5.317 5.317v0zM16 7.805c-4.441 0.109-8 3.735-8 8.193 0 4.526 3.669 8.195 8.195 8.195s8.194-3.668 8.195-8.193v-0c-0.027-4.533-3.707-8.196-8.244-8.196-0.052 0-0.103 0-0.154 0.001l0.008-0zM26.439 7.463c0 1.051-0.852 1.902-1.902 1.902s-1.902-0.852-1.902-1.902v0c0-1.051 0.852-1.902 1.902-1.902s1.902 0.852 1.902 1.902v0z"></path>
</symbol>
<symbol id="icon-logo-hera" viewBox="0 0 98 32">
<path d="M0 0v31.782h3.523v-15.409h17.081v15.432h3.54v-31.802h-3.57v14.816h-17.089v-14.818h-3.485z"></path>
<path d="M84.685 0.871c-0.361-0.865-0.472-0.871-1.238-0.871h-3.217s0.386 0.919 0.453 1.081c0.161 0.406 0.24 0.766-0.014 1.363-3.366 7.916-11.565 27.305-11.565 27.305-0.91-0.043-1.579-0.46-2.156-1.251-0.846-1.165-2.791-7.612-3.004-8.215-0.804-2.298-1.907-3.495-3.393-4.555 2.298-1.644 3.917-3.886 4.342-6.069 0.609-3.115-0.301-7.16-3.737-8.733-1.118-0.537-2.427-0.864-3.809-0.895l-0.011-0c-1.759-0.031-4.654-0.031-6.972-0.031h-2.68v31.787h3.509v-30.281c0.841 0.008 3.293 0.032 5.95 0.075 1.275 0.022 2.542 0.657 3.084 1.246 1.475 1.603 2.032 4.435 1.513 6.737-0.475 2.108-1.791 4.137-3.435 4.802-1.202 0.484-2.862 0.46-3.965 0.446h-0.81v1.565h0.306c1.143 0 1.855-0.037 3.061 0.139 1.585 0.23 2.708 1.379 3.433 3.051 0.308 0.709 0.716 1.904 1.149 3.169 0.797 2.322 1.696 4.957 2.521 6.295 1.186 1.928 2.537 2.899 4.689 2.967 0.046 0.001 0.101 0.001 0.155 0.001 0.718 0 1.418-0.073 2.095-0.213l-0.067 0.012s4.071-9.61 4.702-11.122c0.099-0.23 0.164-0.28 0.411-0.28h12.53c0.259 0 0.331 0.052 0.438 0.308 1.435 3.416 2.988 7.088 4.45 10.494 0.077 0.178 0.29 0.591 0.615 0.6 0.811 0.025 3.687 0 3.687 0s-9.898-23.409-13.023-30.926zM88.17 18.844h-11.788l5.874-14.018zM44.989 31.139c-0.177-0.831-0.546-0.893-1.005-0.893-0.008 0-11.332 0.013-13.007 0.012v-13.885h12.472v-1.55h-12.463v-13.268s11.008 0 13.073-0.010c0.222 0 0.681-0.134 0.787-0.446s0.269-1.099 0.269-1.099h-17.679v31.797h17.687s-0.045-0.248-0.133-0.662z"></path>
</symbol>
<symbol id="icon-logo-p" viewBox="0 0 17 32">
<path d="M12.328 22.149c0.522-0.912 0.84-2.001 0.864-3.161l0-0.007c0-0.259-0.029-0.49-0.029-0.662v-5.732c-0-0.015-0-0.033-0-0.051 0-0.205 0.011-0.408 0.031-0.607l-0.002 0.025c-0.014-0.833-0.182-1.623-0.477-2.348l0.016 0.044c-0.537-1.336-1.445-2.429-2.595-3.181l-0.026-0.016c-1.152-0.662-2.247-1.008-3.226-1.008h-6.884v26.527h5.012v-6.481c0-0.029 0-0.029 0.029-0.029h1.008c0.024-0 0.052-0.001 0.081-0.001 0.185 0 0.367 0.011 0.546 0.032l-0.022-0.002c0.473-0.019 0.918-0.071 1.353-0.153l-0.057 0.009c1.222-0.269 2.285-0.834 3.145-1.618l-0.005 0.005c0.469-0.462 0.879-0.982 1.219-1.549l0.020-0.035zM8.209 18.405c0 0.605-0.058 1.037-0.202 1.267-0.193 0.327-0.494 0.572-0.853 0.688l-0.011 0.003c0 0.086-0.403 0.115-1.239 0.115h-0.864c-0.029 0-0.029 0-0.029-0.029l0.029-9.966h1.095c0.605 0 1.037 0.058 1.267 0.202 0.327 0.193 0.572 0.494 0.688 0.853l0.003 0.011c0.086 0 0.115 0.403 0.115 1.239zM8.209 29.494h8.814v2.506h-8.814zM9.937 0l-8.814 0.893v2.535l8.814-0.922v-2.506z"></path>
</symbol>
<symbol id="icon-logo-quebec" viewBox="0 0 25 32">
<path d="M21.601 12.812c-2.354-0.216-6.357 1.53-6.357 9.064h-1.491c-0.002-0.111-0.003-0.241-0.003-0.372 0-2.676 0.454-5.247 1.288-7.638l-0.049 0.163c1.275-3.198 3.453-7.338-2.315-13.95-5.768 6.612-3.571 10.752-2.315 13.95 0.797 2.257 1.257 4.861 1.257 7.571 0 0.097-0.001 0.194-0.002 0.291l0-0.015h-1.55c0-7.534-3.924-9.28-6.376-9.064-5.219 0.471-4.846 8.79 0.118 8.731-0.49-1.373 0-2.923 1.177-3.159 3.512-0.804 3.473 3.492 3.473 3.492h-2.139v2.668h5.297c-0.168 1.375-1.109 2.493-2.369 2.916l-0.025 0.007c0.334 0.961 1.962 1.334 1.962 1.334 0.209 1.252 0.776 2.346 1.591 3.2l-0.002-0.002c0.814-0.854 1.387-1.946 1.603-3.161l0.005-0.037s1.511-0.373 1.962-1.334c-1.29-0.422-2.236-1.545-2.392-2.907l-0.002-0.016h5.18v-2.629h-2.139s0-4.297 3.492-3.492c0.827 0.371 1.393 1.188 1.393 2.137 0 0.372-0.087 0.724-0.242 1.036l0.006-0.014c4.866 0.020 5.219-8.299-0.039-8.77z"></path>
</symbol>
</defs>
</svg>
