<?xml version="1.0" standalone="no"?>
<!DOCTYPE svg PUBLIC "-//W3C//DTD SVG 20010904//EN"
 "http://www.w3.org/TR/2001/REC-SVG-20010904/DTD/svg10.dtd">
<svg version="1.0" xmlns="http://www.w3.org/2000/svg"
 width="260.000000pt" height="260.000000pt" viewBox="0 0 260.000000 260.000000"
 preserveAspectRatio="xMidYMid meet">
<metadata>
Created by potrace 1.11, written by Peter Selinger 2001-2013
</metadata>
<g transform="translate(0.000000,260.000000) scale(0.100000,-0.100000)"
fill="#000000" stroke="none">
<path d="M550 1296 l0 -993 108 1 107 1 3 481 2 480 519 0 c286 -1 523 -4 527
-8 4 -5 8 -221 8 -480 l1 -473 108 -2 c105 -3 107 -2 108 20 1 29 1 1938 0
1955 -1 9 -30 12 -111 12 l-110 0 0 -463 0 -462 -522 0 c-405 0 -524 2 -528
12 -3 7 -5 215 -4 463 l0 450 -108 0 -108 0 0 -994z"/>
</g>
</svg>
