<svg id="Layer_1" data-name="Layer 1" xmlns="http://www.w3.org/2000/svg" viewBox="0 0 103.67 556.98"><defs><style>.cls-1,.cls-2{fill:#f7c11c;}.cls-2{stroke:#f7c11c;stroke-miterlimit:10;stroke-width:4px;}</style></defs><title>ble</title><polygon class="cls-1" points="49.83 135.95 49.83 187.85 0 137.95 0 86.04 49.83 135.95"/><polygon class="cls-1" points="53.83 135.95 53.83 187.85 103.67 137.95 103.67 86.04 53.83 135.95"/><polygon class="cls-1" points="51.87 79.75 78.75 65.54 78.72 104.52 51.83 131.4 51.87 79.75"/><polygon class="cls-1" points="51.8 79.75 24.92 65.54 24.95 104.52 51.83 131.4 51.8 79.75"/><polygon class="cls-1" points="51.87 81.81 78.75 94.05 78.72 57.04 51.83 30.16 51.87 81.81"/><polygon class="cls-1" points="51.8 81.81 24.92 94.05 24.95 57.04 51.83 30.16 51.8 81.81"/><polygon class="cls-1" points="49.83 194.26 49.83 246.17 0 196.26 0 144.36 49.83 194.26"/><polygon class="cls-1" points="53.83 194.26 53.83 246.17 103.67 196.26 103.67 144.36 53.83 194.26"/><polygon class="cls-1" points="49.83 252.58 49.83 304.48 0 254.58 0 202.68 49.83 252.58"/><polygon class="cls-1" points="53.83 252.58 53.83 304.48 103.67 254.58 103.67 202.68 53.83 252.58"/><polygon class="cls-1" points="49.83 310.9 49.83 362.8 0 312.9 0 260.99 49.83 310.9"/><polygon class="cls-1" points="53.83 310.9 53.83 362.8 103.67 312.9 103.67 260.99 53.83 310.9"/><polygon class="cls-1" points="49.83 369.21 49.83 421.12 0 371.21 0 319.31 49.83 369.21"/><polygon class="cls-1" points="53.83 369.21 53.83 421.12 103.67 371.21 103.67 319.31 53.83 369.21"/><line class="cls-2" x1="51.83" y1="556.98" x2="51.83" y2="432.75"/><line class="cls-2" x1="51.83" y1="102" x2="51.83"/></svg>