<!-- Generated by IcoMoon.io -->
<svg version="1.1" xmlns="http://www.w3.org/2000/svg" width="36" height="32" viewBox="0 0 36 32">
<title>heart</title>
<path fill="none" stroke-linejoin="miter" stroke-linecap="butt" stroke-miterlimit="10" stroke-width="1.0376" stroke="#000" d="M17.992 31.481c-0.004 0-0.008 0-0.012 0-0.585 0-1.114-0.242-1.492-0.632l-0.001-0.001-11.486-11.362c-0.073-0.062-0.27-0.249-0.519-0.508s-0.591-0.674-1.090-1.339c-0.436-0.556-0.871-1.182-1.269-1.833l-0.049-0.086c-0.39-0.705-0.742-1.526-1.012-2.384l-0.026-0.096c-0.305-0.85-0.494-1.831-0.519-2.852l-0-0.012c-0.012-0.185-0.020-0.401-0.020-0.618 0-2.57 0.994-4.908 2.619-6.651l-0.005 0.006c1.724-1.617 4.051-2.611 6.609-2.611 0.201 0 0.4 0.006 0.598 0.018l-0.027-0.001c0.95 0.008 1.858 0.175 2.704 0.474l-0.058-0.018c0.93 0.322 1.736 0.733 2.474 1.237l-0.035-0.023c0.706 0.477 1.318 0.923 1.826 1.349 0.27 0.218 0.529 0.446 0.789 0.685 0.249-0.239 0.519-0.467 0.789-0.685 0.508-0.425 1.121-0.872 1.826-1.349 0.702-0.481 1.508-0.892 2.366-1.192l0.072-0.022c0.787-0.282 1.696-0.448 2.642-0.457l0.004-0c0.158-0.009 0.344-0.014 0.53-0.014 2.561 0 4.89 0.992 6.624 2.614l-0.006-0.005c1.637 1.74 2.643 4.091 2.643 6.676 0 0.207-0.006 0.412-0.019 0.615l0.001-0.028c0 3.030-1.515 6.122-4.493 9.172l-11.486 11.414c-0.364 0.324-0.847 0.522-1.376 0.522-0.041 0-0.083-0.001-0.123-0.004l0.006 0z"></path>
</svg>
