<?xml version="1.0" encoding="utf-8"?>
<!-- Generator: Adobe Illustrator 23.0.0, SVG Export Plug-In . SVG Version: 6.00 Build 0)  -->
<svg version="1.1" id="Layer_1" xmlns="http://www.w3.org/2000/svg" xmlns:xlink="http://www.w3.org/1999/xlink" x="0px" y="0px"
	 viewBox="0 0 490.88 452.07" style="enable-background:new 0 0 490.88 452.07;" xml:space="preserve">
<style type="text/css">
	.st0{fill:#F7C01C;}
</style>
<g>
	<path d="M78.32,217.03c-0.61-0.72-1.22-1.52-1.9-2.24c-5.27-5.58-2-13.24,2.3-15.8c2.46-1.47,5.14-1.03,6.75,1.11
		c1.07,1.43,1.41,3,0.53,4.6c-0.94,1.7-2.43,2.67-4.47,2.9c0.04-0.23,0.04-0.36,0.09-0.44c0.69-1.1,0.64-1.97-0.16-2.51
		c-0.8-0.54-1.99-0.25-2.63,0.66c-0.99,1.42-1.24,3.03-0.94,4.7c0.24,1.35,1.8,2.37,3.62,2.44c2.15,0.08,3.87-0.85,5.25-2.44
		c2.05-2.37,2.95-5.28,3.67-8.25c1.49-6.16,2.01-12.45,2.44-18.75c0.29-4.26,0.74-8.51,1.08-12.77c0.28-3.46,0.54-6.93,0.77-10.39
		c0.45-6.95,2.4-13.51,5.08-19.88c4.38-10.39,10.52-19.56,18.82-27.22c4.8-4.43,10.29-7.84,15.98-10.98
		c5.64-3.11,11.41-5.97,16.95-9.25c8.88-5.25,16.17-12.23,22.38-20.39c3.83-5.04,7.25-10.34,10.43-15.81
		c0.11-0.19,0.33-0.36,0.19-0.71c-1.58,2.11-3.1,4.2-4.68,6.25c-5.45,7.05-11.4,13.61-18.64,18.9c-5.41,3.95-11.28,7.15-17.19,10.26
		c-11.12,5.83-21.52,12.76-31.28,20.66c-10.98,8.89-17.5,20.36-20.3,34.12c-1.31,6.41-2.33,12.82-1.9,19.38
		c0.29,4.38,0.65,8.76,0.84,13.15c0.2,4.81-0.03,9.59-1.43,14.24c-0.12,0.4-0.14,1.04-0.59,1.09c-0.56,0.06-0.63-0.63-0.86-1.02
		c-1.82-3.04-2.22-6.47-2.62-9.89c-0.92-7.83-1.53-15.68-1.19-23.56c0.67-15.74,5.05-30.22,15.12-42.63
		c4.8-5.92,10.66-10.69,16.83-15.09c8.34-5.94,17.36-10.69,26.48-15.25c7.89-3.94,15.56-8.22,22.41-13.83
		c5.84-4.79,11.2-10.03,15.27-16.47c1.48-2.35,2.53-4.9,3.54-7.47c0.88-2.23,1.74-4.47,3.03-6.51c0.3-0.46,0.53-1,0.65-1.54
		c0.22-0.97-0.22-1.72-1.04-2.23c-0.83-0.52-1.56-0.17-2.17,0.41c-0.99,0.93-1.35,2.23-1.95,3.4c-4.29,8.37-8.69,16.69-15.53,23.35
		c-4.74,4.61-10.27,8.16-15.96,11.43c-13.31,7.66-26.8,15-40.36,22.2c-2.47,1.31-5.04,2.44-7.69,3.36c-0.47,0.16-0.93,0.5-1.54,0.26
		c0.34-1.07,1.11-1.84,1.78-2.67c5.22-6.43,11.78-11.24,18.82-15.44c9.92-5.93,19.91-11.75,29.47-18.26
		c5.13-3.49,10.23-7.01,14.66-11.4c2.45-2.43,4.28-5.39,6.6-7.92c3.57-3.89,7.24-7.68,10.56-11.79c0.67-0.83,1.41-0.96,2.44-0.64
		c2.24,0.7,4.08,1.95,5.75,3.57c2.21,2.14,4.44,4.27,6.94,6.08c2.77,2,5.96,2.76,9.25,2.94c6.85,0.38,13.4,2.13,19.91,4.08
		c5.15,1.54,10.41,2.47,15.78,2.74c3.8,0.19,7.32,1.39,10.48,3.45c4.56,2.98,9.62,4.21,14.94,4.7c5.16,0.47,10.11,1.95,15.12,3.16
		c3.91,0.95,7.83,1.5,11.85,0.53c1.62-0.39,3.27-0.08,4.83,0.52c2.25,0.85,4.54,1.57,6.92,1.92c1.27,0.19,1.41,0.88,1.24,1.94
		c-0.89,5.51-2.8,10.65-5.42,15.55c-3.4,6.35-7.55,12.26-11.15,18.49c-5.78,9.99-10.04,20.52-11.79,31.99
		c-1.52,9.99-1.64,19.91,1.55,29.64c2.97,9.05,8.36,16.21,16.76,20.93c0.36,0.2,0.7,0.54,1.31,0.42c-0.91-1.29-1.79-2.51-2.64-3.75
		c-4.72-6.84-8.73-14.05-11.51-21.92c-5.01-14.19-3.83-27.89,3.1-41.17c3.58-6.87,8.09-13.14,12.41-19.53
		c3.78-5.6,7.48-11.26,10.23-17.47c1.97-4.45,3.39-9.06,3.99-13.89c0.15-1.17,0.75-1.63,1.82-1.85c2.12-0.44,4.3-0.34,6.43-0.67
		c2.6-0.39,4.19-1.8,4.77-4.37c0.77-3.43,1.04-6.87,0.29-10.34c-0.08-0.38-0.13-0.77-0.08-1.19c0.75,1.56,1.27,3.19,1.69,4.86
		c0.77,3.03,0.83,6.08,0.2,9.15c-0.33,1.59-1,3.08-2.32,3.94c-3.09,2.02-3.17,4.94-2.96,8.14c0.44,6.68,0.6,13.39-1.76,19.8
		c-2.14,5.82-2.41,11.75-1.93,17.84c0.59,7.49,2.8,14.4,7.01,20.65c3.63,5.39,8.53,9.26,14.3,12.11c0.97,0.48,2,0.81,3.07,1.01
		c2.89,0.54,5.09-0.36,6.67-2.85c0.59-0.93,1.03-1.96,1.59-3.03c0.54,0.4,0.51,0.91,0.54,1.41c0.13,2.1-0.25,4.13-0.77,6.16
		c-1.07,4.16-4.3,4.69-7.07,4.29c-3.39-0.49-6.26-2.08-8.82-4.31c-2.17-1.89-4.12-4.03-6.43-5.77c-0.34-0.26-0.7-0.5-1.12-0.67
		c3.04,4.1,5.98,8.28,10.66,10.76c5.08,2.7,13.61,2.04,17.56-4.78c0.17-0.28,0.27-0.8,0.7-0.69c0.42,0.1,0.34,0.6,0.32,0.94
		c-0.15,3.96-1.79,7.21-4.99,9.51c-1.93,1.38-4.2,1.05-6.37,0.47c-1.38-0.37-2.73-0.82-4.11-1.16c3.34,2.58,7.03,3.25,11.14,2.23
		c4.08-1.01,7.14-3.1,8.46-7.61c0.86,1.65,0.79,3.05,0.58,4.39c-0.84,5.26-6.44,9.24-11.71,8.5c-3.68-0.51-7.1-1.68-10.14-3.76
		c-8.34-5.73-16.61-11.57-23.62-18.97c-4.01-4.23-7.3-8.9-8.67-14.71c-0.85-3.63-0.82-7.29-0.26-10.96
		c0.04-0.27,0.07-0.54,0.14-1.13c-1.46,2.03-2.22,3.99-2.3,6.18c-0.23,6.49,1.93,12.26,5.53,17.53c4.09,5.99,9.72,10.33,15.61,14.39
		c7.96,5.49,16.49,9.95,25.11,14.29c5.11,2.57,10.31,4.96,15.06,8.19c4.18,2.84,7.68,6.28,9.42,11.18c1.08,3.04,1.38,6.15,0.66,9.32
		c-0.07,0.32,0,0.85-0.46,0.88c-0.42,0.03-0.48-0.48-0.62-0.79c-0.35-0.81-0.74-1.61-0.98-2.45c-1.61-5.63-5.15-9.77-10.2-12.48
		c-8.78-4.72-17.17-10.08-25.51-15.52c-0.29-0.19-0.6-0.34-0.93-0.45c3.89,4.54,8.49,8.19,13.77,10.99
		c3.35,1.78,6.78,3.41,10.01,5.44c9.42,5.92,10.8,17.41,7.36,24.66c-0.9,1.9-2.11,3.58-3.68,4.99c-0.2,0.18-0.39,0.5-0.7,0.34
		c-0.32-0.16-0.14-0.5-0.1-0.76c0.26-1.5,0.73-2.95,1.28-4.37c3.78-9.64-1.89-17.81-8.75-21.23c-3.62-1.81-7.24-3.58-10.29-6.3
		c-0.53-0.47-1.19-0.8-1.83-1.14c-0.37-0.2-0.83-0.61-1.2-0.33c-0.4,0.29-0.09,0.82,0.02,1.23c0.86,3.16,1.27,6.35,0.47,9.59
		c-0.44,1.78-1.18,3.49-1.5,5.3c-0.36,2.01-0.14,3.92,1.17,5.57c1.37,1.72,4.24,1.7,5.56-0.03c0.28-0.37,0.7-0.87,0.21-1.26
		c-0.42-0.34-0.65,0.27-0.91,0.52c-0.55,0.52-1.09,1.3-1.88,0.49c-0.73-0.74-0.25-1.48,0.34-2.09c1.49-1.55,3.36-1.79,4.82-0.64
		c1.72,1.36,2.18,4.03,1.03,5.99c-1.83,3.12-5.74,4.39-9.09,2.9c-2.77-1.23-4.73-3.38-6.33-5.87c-2.06-3.22-3.24-6.82-3.78-10.54
		c-1.42-9.8-6.55-17.44-13.52-24.1c-5.08-4.85-10.69-9.03-16.39-13.09c-3.55-2.53-6.94-5.27-10.59-7.68
		c-0.52-0.34-1.07-0.64-1.8-1.08c0.12,1.02,0.65,1.49,1.11,2.02c5.46,6.3,11.97,11.42,18.48,16.53c4.79,3.76,9.48,7.62,13.21,12.5
		c3.68,4.81,6.45,10.1,8.39,15.83c1.05,3.1,1.97,6.26,3.44,9.2c1.12,2.24,2.51,4.27,4.58,5.77c4.14,3.02,11.01,2.76,14.9-0.59
		c2.09-1.8,2.74-4.38,1.75-6.96c-0.95-2.46-2.95-3.74-5.73-3.66c-2.66,0.08-4.73,1.69-5.57,4.32c-0.39,1.23-0.81,1.32-1.72,0.36
		c-1.24-1.3-1.2-3.37,0.25-5.02c2.94-3.32,8.28-5.15,12.91-2.14c6.08,3.95,9.03,13.35,1.9,20.67c-0.69,0.71-1.48,1.34-2.28,1.94
		c-0.79,0.59-1.65,1.09-2.51,1.65c0.35,0.3,0.72,0.16,1.06,0.16c26.32,0.01,52.64,0.01,78.96,0.01c1.6,0,1.59,0,1.62-1.56
		c0.08-5.4,0.06-10.8-0.27-16.19c-1.14-18.58-4.74-36.67-11.04-54.2c-6.66-18.54-15.96-35.67-27.88-51.35
		c-12.86-16.92-28.05-31.4-45.59-43.41c-7.24-4.95-14.78-9.4-22.63-13.31c-0.18-0.09-0.36-0.17-0.53-0.27
		c-0.34-0.2-0.82-0.37-0.59-0.88c0.31-0.65,0.76-0.17,1.1-0.01c3.31,1.61,6.55,3.34,9.75,5.17c14.38,8.21,27.52,18.08,39.39,29.64
		c26.98,26.28,45.04,57.67,53.97,94.28c2.17,8.9,3.63,17.92,4.49,27.05c0.76,8.05,1.09,16.11,0.85,24.19
		c-0.56,18.48-3.52,36.56-9.17,54.18c-7.79,24.34-19.9,46.31-36.39,65.82c-22.6,26.75-50.3,46.3-83.26,58.27
		c-12.93,4.69-26.23,7.92-39.87,9.72c-7.06,0.93-14.14,1.45-21.25,1.7c-6.25,0.22-12.47,0.06-18.69-0.37
		c-21.26-1.46-41.78-6.2-61.47-14.4c-19.43-8.1-37.08-19.08-52.96-32.91c-16.58-14.45-30.43-31.15-41.42-50.21
		c-10.55-18.31-17.88-37.84-22.01-58.56c-1.72-8.63-2.85-17.33-3.4-26.12c-0.38-6.11-0.55-12.22-0.35-18.34
		c0.85-25.83,6.37-50.6,16.99-74.19c8.03-17.85,18.56-34.11,31.51-48.8c13.54-15.36,29.06-28.34,46.62-38.87
		c10.8-6.47,22.14-11.83,34-16.06c0.46-0.16,1.19-0.8,1.45-0.14c0.33,0.83-0.65,0.94-1.21,1.14c-14.94,5.37-29.03,12.44-42.17,21.33
		c-26.6,17.98-47.66,41.02-63.01,69.24c-9.69,17.81-16.28,36.73-19.98,56.66c-1.37,7.39-2.26,14.84-2.77,22.34
		c-0.4,6.03-0.47,12.06-0.42,18.1c0.01,0.71-0.04,1.34,1.02,1.34C61.13,217.01,69.81,217.03,78.32,217.03z M88.69,324.99
		c27.28,38.57,85.87,84.99,170.58,79.44c28.54-1.87,55.38-9.85,80.39-23.77c24.99-13.91,45.82-32.53,62.92-55.66
		C297.78,324.99,193.26,324.99,88.69,324.99z M244.41,92.59c-0.15,1.74,0.19,2.56,1.4,3.43c3.08,2.22,7.29,0.41,7.77-3.48
		c0.72-5.75-1.19-10.64-5.42-14.56c-3.04-2.82-6.73-4.59-10.58-5.99c-8.52-3.11-17.16-5.89-25.36-9.86
		c-5.23-2.54-9.96-5.58-13.39-10.39c-0.72-1.01-0.84-0.96-1.34,0.18c-2.2,5.04-2.16,9.99,0.5,14.88c1.24,2.28,2.56,4.52,3.48,6.97
		c1.52,4.03,0.43,6.97-3.36,9.06c-1.19,0.65-2.44,1.14-3.69,1.67c2.84,0.03,5.34-1.05,7.75-2.46c-1.5,1.89-3.5,2.99-5.65,3.88
		c1.9-0.26,3.56-1.17,5.32-1.85c-1.7,1.71-3.88,2.58-6.01,3.54c2.5-0.02,4.62-1.09,6.65-2.49c0.16,1.56-0.41,4.33-1.08,5.79
		c-1.41,3.07-3.56,5.58-5.95,7.91c-1.28,1.26-2.6,2.49-3.47,4.11c-1,1.87-0.87,3.62,0.53,5.22c0.73,0.84,1.57,1.59,2.34,2.41
		c2.73,2.9,2.91,5.27,0.66,8.51c-0.87,1.26-0.8,2.35,0.25,3.46c1.14,1.2,2.63,1.78,4.13,2.35c0.51,0.19,1.4,0.11,1.47,0.6
		c0.1,0.64-0.81,0.71-1.27,1.04c-2.11,1.49-2.25,3.35-0.3,5.05c0.51,0.44,1.09,0.81,1.67,1.15c1.37,0.82,1.99,2,1.9,3.6
		c-0.08,1.42-0.6,2.73-0.85,4.1c-0.53,2.89-0.16,5.54,2.37,7.44c1.63,1.23,3.52,1.85,5.57,1.98c3.35,0.21,6.37-0.9,9.32-2.32
		c3.28-1.57,6.36-3.54,9.74-4.91c1.1-0.45,1.36-0.3,1.42,0.89c0.26,4.73-0.11,9.45-2.11,13.74c-2.46,5.28-3,10.83-3.1,16.47
		c-0.11,6.19-0.07,12.39,0.09,18.59c0.2,7.87,0.58,15.73,1.26,23.57c0.08,0.87,0.35,1.17,1.23,1.16c3.16-0.04,6.32-0.04,9.48,0
		c1.07,0.01,1.3-0.33,1.06-1.36c-0.79-3.3-1.61-6.6-2.13-9.96c-0.43-2.78-0.73-5.56,0.2-8.3c0.23-0.68,0.62-1.23,1.43-1.25
		c0.77-0.03,1.27,0.38,1.58,1.06c1.39,3,1.85,6.19,1.73,9.46c-0.11,2.99-0.39,5.98-0.4,8.98c0,1.02,0.29,1.39,1.37,1.38
		c5-0.05,10-0.02,15-0.03c0.34,0,0.8,0.19,0.99-0.18c0.19-0.36-0.21-0.65-0.39-0.94c-4.07-6.92-9.19-12.95-15.28-18.19
		c-4.51-3.89-8.89-7.93-12.85-12.41c-1.59-1.8-3.02-3.73-4.06-5.91c-0.33-0.69-0.3-1.33,0.27-1.86c0.57-0.53,1.24-0.51,1.89-0.14
		c0.35,0.2,0.67,0.43,1,0.66c3.37,2.42,6.29,5.32,8.9,8.52c4.35,5.32,8.32,10.95,12.94,16.07c4.02,4.45,8.18,8.78,11.46,13.84
		c0.34,0.52,0.82,0.56,1.36,0.56c8.44,0,16.88-0.01,25.32,0.01c0.86,0,1.06-0.25,1.01-1.1c-0.37-5.93-2.13-11.46-4.77-16.72
		c-4.36-8.68-8.75-17.35-12.93-26.12c-0.42-0.88-0.84-1.76-1.26-2.63c-0.18,0.83-0.17,1.58-0.08,2.32
		c0.54,4.87,1.94,9.54,3.37,14.21c1.53,5,3.19,9.97,3.87,15.2c0.71,5.54-1.6,10.41-6.32,12.92c-4.73,2.51-9.49,0.86-11.38-3.93
		c-0.8-2.02-1-4.12-0.75-6.25c0.21-1.69,0.76-3.29,2.06-4.49c1.47-1.36,3.2-1.83,5.1-1.18c1.79,0.61,2.78,1.96,3.06,3.81
		c0.27,1.79-1.03,3.2-2.81,3.11c-0.04-0.33,0.23-0.49,0.41-0.69c0.71-0.79,0.51-1.54-0.12-2.25c-1.06-1.18-2.88-1.02-3.62,0.44
		c-1.13,2.23-0.99,4.51,0.29,6.64c1.15,1.91,3.01,2.37,5.1,2.15c2.14-0.23,3.89-1.85,4.57-4.21c0.65-2.28,0.58-4.58,0.17-6.89
		c-0.77-4.3-2.77-8.07-5.15-11.66c-2.32-3.5-4.74-6.94-7.04-10.44c-3.48-5.3-6.51-10.83-8.38-16.93c-2.51-8.2-4.16-16.59-4.91-25.13
		c-0.42-4.83-0.33-9.66,1.75-14.24c1.67-3.68,4.08-6.86,6.44-10.09c0.26-0.36,0.86-0.72,0.57-1.19c-0.22-0.35-0.83-0.15-1.25-0.09
		c-2.73,0.4-5.43,0.17-8.11-0.31c-4.17-0.76-8.03-2.19-10.89-5.54c-0.68-0.8-1.35-1.64-1.6-3.02c1.45,0.97,2.66,1.87,3.95,2.62
		c5,2.94,10.29,4.33,16.07,2.7c5.42-1.53,9.48-5.7,10.52-10.82c-0.03,0.02-0.07,0.04-0.09,0.06c-0.29,0.38-0.59,0.76-0.88,1.14
		c-4.25,5.6-9.67,8.65-16.91,8.12c-5.4-0.39-9.72-3.83-11.04-9.1c-1.1-4.4,0.68-8.41,4.5-10.14c2.9-1.31,6.08-0.56,7.73,1.83
		c1.16,1.68,0.7,4.07-0.98,5.04C246.9,95.09,245.31,94.46,244.41,92.59z M227.84,274.88c0,12.16,0.01,24.32-0.02,36.47
		c0,1.14,0.32,1.55,1.49,1.52c2.88-0.07,5.76-0.07,8.64,0c1.21,0.03,1.58-0.36,1.57-1.57c-0.05-7.96-0.02-15.92-0.02-23.88
		c0-1.48,0.02-2.96,0-4.44c-0.02-0.82,0.33-1.16,1.15-1.14c1.72,0.05,3.43-0.06,5.15,0.2c2.73,0.41,4.54,1.85,5.36,4.49
		c0.48,1.54,0.67,3.12,0.68,4.73c0.02,5.24,0.01,10.48,0.03,15.72c0.01,1.6,0.24,3.18,0.62,4.74c0.19,0.78,0.56,1.14,1.4,1.14
		c3.24-0.03,6.48-0.03,9.72,0c0.82,0.01,0.92-0.26,0.69-1.01c-0.62-2-0.79-4.06-0.83-6.15c-0.1-5.83,0.3-11.68-0.23-17.5
		c-0.46-5-2.06-9.39-6.93-11.83c-0.75-0.37-0.63-0.67,0.03-1.03c3.65-2.02,5.75-5.21,6.41-9.23c0.95-5.79,0.97-11.64,0.01-17.42
		c-0.93-5.55-4.23-9.18-9.73-10.7c-2.29-0.64-4.63-0.88-6.99-0.89c-5.44-0.03-10.88-0.01-16.32-0.01c-1.85,0-1.85,0-1.85,1.8
		C227.84,250.88,227.84,262.88,227.84,274.88z M113.01,274.95c0-6.76,0.01-13.52,0-20.28c0-1.29,0.14-2.56,0.5-3.79
		c0.81-2.77,2.87-4.13,6.14-4.09c2.96,0.04,4.96,1.5,5.7,4.2c0.33,1.2,0.48,2.43,0.48,3.67c0,2.2,0,4.4,0,6.6
		c0,0.6,0.02,1.14,0.85,1.14c3.08-0.01,6.16,0,9.24,0c0.53,0,0.84-0.21,0.83-0.78c-0.07-4.66,0.4-9.36-0.95-13.94
		c-1.65-5.59-5.18-9.31-10.87-10.75c-3.73-0.94-7.53-0.94-11.29-0.08c-5.37,1.23-8.99,4.48-10.86,9.67c-1,2.78-1.36,5.67-1.37,8.6
		c-0.03,12.96-0.01,25.92-0.02,38.87c0,2.04,0.14,4.08,0.5,6.08c1.21,6.69,4.77,11.34,11.59,13.04c2.89,0.72,5.84,0.78,8.81,0.43
		c7.57-0.89,12.6-5.55,13.97-13.04c0.9-4.92,0.38-9.89,0.51-14.84c0.02-0.73-0.43-0.84-1.02-0.83c-2.96,0.01-5.92,0.03-8.88-0.01
		c-0.92-0.01-1.04,0.46-1.03,1.2c0.02,2.92-0.01,5.84,0.01,8.76c0.01,1.08-0.08,2.16-0.25,3.22c-0.43,2.75-2.06,4.49-4.64,4.98
		c-3.96,0.75-6.91-1.04-7.64-4.68c-0.19-0.98-0.3-1.97-0.3-2.98C113.01,288.55,113.01,281.75,113.01,274.95z M383.05,257.41
		c1.36,0,2.72-0.05,4.08,0.02c1.02,0.05,1.42-0.27,1.4-1.35c-0.03-2.12-0.13-4.24-0.52-6.32c-1.13-6-4.15-10.49-10.19-12.53
		c-3.14-1.06-6.38-1.08-9.61-0.82c-6.68,0.52-11.46,4.32-13.47,10.69c-1.47,4.63-1.54,9.36-0.49,14.09
		c1.17,5.29,4.14,9.55,7.87,13.35c3.19,3.25,6.74,6.14,9.83,9.5c3.43,3.72,5.4,7.96,4.94,13.16c-0.3,3.42-2.28,5.68-5.35,5.89
		c-4.16,0.28-6.33-1.22-7.07-4.97c-0.44-2.21-0.16-4.47-0.21-6.7c-0.02-0.74-0.23-1.11-1.02-1.1c-2.96,0.02-5.92,0.01-8.88,0
		c-0.67,0-1.06,0.23-1.06,0.97c0.02,3.23-0.18,6.48,0.55,9.67c1.36,6.01,4.69,10.28,10.78,12c4.12,1.17,8.31,1.17,12.44,0.04
		c5.08-1.39,8.5-4.64,10.19-9.62c1.63-4.81,1.71-9.73,0.61-14.66c-1.31-5.9-4.88-10.41-9.1-14.52c-3.06-2.98-6.42-5.66-9.21-8.93
		c-3.4-3.99-5.07-8.47-4.09-13.74c0.56-3.01,2.5-4.65,5.47-4.73c3.47-0.09,5.43,1.3,6.2,4.41c0.41,1.64,0.44,3.32,0.39,5
		c-0.03,0.87,0.31,1.23,1.19,1.21C380.17,257.38,381.61,257.41,383.05,257.41z M293.34,274.87c0,12.16,0,24.32-0.01,36.47
		c0,0.89,0.03,1.53,1.23,1.52c9.96-0.03,19.92-0.03,29.87,0c0.99,0,1.21-0.42,1.2-1.3c-0.04-2.6-0.06-5.2,0.01-7.8
		c0.03-1.13-0.36-1.42-1.44-1.41c-5.84,0.04-11.68,0.02-17.52,0.02c-1.69,0-1.7-0.01-1.7-1.63c0-6.48,0-12.96,0-19.44
		c0-1.58,0.03-1.6,1.62-1.61c4.48-0.01,8.96-0.02,13.44,0.01c1,0.01,1.32-0.34,1.3-1.32c-0.05-2.56-0.07-5.12,0.01-7.68
		c0.03-1.14-0.32-1.53-1.49-1.51c-4.44,0.06-8.88-0.01-13.32,0.05c-1.2,0.02-1.59-0.35-1.58-1.57c0.05-6.12,0.02-12.24,0.03-18.36
		c0-1.58,0.01-1.58,1.61-1.58c5.88,0,11.76-0.03,17.64,0.02c1.13,0.01,1.44-0.36,1.41-1.44c-0.07-2.52-0.02-5.04-0.02-7.56
		c0-1.67,0-1.67-1.62-1.67c-9.68,0-19.36,0-29.03,0c-1.63,0-1.63,0-1.63,1.67C293.34,250.79,293.34,262.83,293.34,274.87z
		 M166.14,274.95c0,12.12,0.01,24.24-0.01,36.35c0,0.94,0.04,1.58,1.31,1.57c9.92-0.04,19.84-0.03,29.75-0.01
		c0.94,0,1.26-0.32,1.25-1.26c-0.05-2.6-0.07-5.2,0.01-7.8c0.04-1.2-0.4-1.47-1.52-1.46c-5.88,0.05-11.76-0.01-17.64,0.05
		c-1.23,0.01-1.56-0.38-1.55-1.58c0.05-6.48,0.02-12.96,0.03-19.44c0-1.67,0.01-1.68,1.65-1.68c4.4,0,8.8-0.03,13.2,0.02
		c1.11,0.01,1.57-0.26,1.54-1.46c-0.08-2.56-0.07-5.12,0-7.68c0.03-1.06-0.34-1.38-1.38-1.37c-4.48,0.05-8.96-0.01-13.44,0.04
		c-1.18,0.01-1.6-0.32-1.58-1.56c0.06-6.12,0.02-12.24,0.03-18.36c0-1.59,0.01-1.6,1.58-1.6c5.8,0,11.6,0,17.4,0
		c1.67,0,1.67,0,1.67-1.61c0-2.48,0-4.96,0-7.44c0-1.59,0-1.6-1.57-1.6c-9.64,0-19.28,0-28.91,0c-1.79,0-1.79,0-1.79,1.75
		C166.14,250.87,166.14,262.91,166.14,274.95z M104.62,195.66c0.09,0.02,0.19,0.04,0.28,0.06c0.86-3.32,1.7-6.64,2.57-9.96
		c1.89-7.28,4.47-14.18,9.01-20.36c11.65-15.82,24.71-30.4,38.38-44.45c5.74-5.9,11.6-11.7,17.4-17.55c0.99-1,1.82-2.11,2.62-3.27
		c3.63-5.27,6.2-11.08,8.65-16.95c1.64-3.94,3.33-7.86,5-11.79c-0.51,0.43-0.83,0.96-1.15,1.49c-6.57,11.04-13.61,21.76-21.58,31.85
		c-5.23,6.62-11.06,12.49-18.42,16.77c-5.56,3.23-10.5,7.3-14.96,11.93c-4.73,4.91-8.89,10.27-12.78,15.86
		c-3.3,4.73-6.44,9.55-8.68,14.89c-2.56,6.09-3.87,12.51-4.78,19.01C105.59,187.33,105.14,191.5,104.62,195.66z M222.52,170.38
		c-0.28,0.34-0.53,0.63-0.76,0.94c-1.75,2.29-3.18,4.79-4.65,7.27c-1.77,2.98-4.12,5.38-7.11,7.15c-1.42,0.85-2.64,1.93-3.68,3.22
		c-1.91,2.36-3.82,4.72-5.76,7.06c-5.17,6.27-9.92,12.84-13.96,19.9c-0.51,0.9-0.39,1.13,0.65,1.12c5.24-0.03,10.47-0.04,15.71,0.01
		c0.98,0.01,1.49-0.3,1.92-1.19c2.99-6.32,5.97-12.65,8.63-19.12c3.39-8.24,6.81-16.47,8.95-25.15
		C222.56,171.22,222.79,170.86,222.52,170.38z M91.96,214.86c4.14-3.23,6.5-7.35,7.81-12.15c1.17-4.27,1.46-8.66,1.68-13.05
		c0.15-2.83,0.29-5.66,0.63-8.48c0.63-5.31,2.2-10.39,4-15.4c3.75-10.43,9.4-19.65,17.32-27.46c5.16-5.09,10.77-9.66,16.27-14.37
		c7.62-6.53,15.28-13.03,22.35-20.17c1.81-1.82,3.62-3.65,5.16-5.73c-0.38,0.17-0.71,0.38-1.03,0.61
		c-6.8,4.79-13.61,9.57-20.39,14.38c-9.45,6.69-18.51,13.85-26.06,22.72c-7.71,9.06-13.74,19.06-16.79,30.67
		c-2.07,7.87-2.81,15.96-4.21,23.95C97.23,198.68,95.84,207,91.96,214.86z M152.09,138.41c-0.44,0.17-0.63,0.22-0.8,0.31
		c-8.33,4.25-15.52,9.92-20.91,17.6c-9.07,12.94-16.03,26.89-19.69,42.38c-1.37,5.8-3.2,11.48-6.23,16.68
		c-0.28,0.48-1.06,1.28-0.65,1.46c0.81,0.36,0.95-0.73,1.24-1.25c2.96-5.18,5.71-10.47,8.11-15.92
		c6.74-15.25,15.71-29.1,26.01-42.15c3.99-5.05,8.07-10.04,11.26-15.67C151.02,140.82,151.62,139.79,152.09,138.41z M262.53,146.5
		c2.23-5.99,4.37-12.01,6.7-17.96c2.16-5.54,4.2-11.14,7.51-16.16c2.31-3.5,4.49-7.09,6.57-10.73c2-3.49,4.2-6.9,5.42-10.8
		c1.32-4.23,2.46-8.52,3.46-12.84c0.19-0.81,0.33-1.66,0.34-2.49c0.01-2.66-1.59-3.82-4.05-3.02c-0.61,0.2-1.28,0.48-1.87,0.23
		c-1.3-0.57-1.54,0.11-1.6,1.15c-0.01,0.2-0.04,0.4-0.06,0.6c-0.57,5.38-1.6,10.63-3.74,15.66c-3.45,8.09-7.58,15.86-11.2,23.87
		c-1.83,4.04-3.99,7.94-4.77,12.37C264.06,133.06,263.8,139.87,262.53,146.5z M185.19,123.67c-0.06-0.04-0.12-0.08-0.19-0.13
		c-0.23,0.26-0.46,0.51-0.68,0.79c-4.65,5.86-8.98,11.96-13.27,18.08c-8.02,11.44-16.42,22.56-25.82,32.92
		c-7.95,8.76-15.15,18.08-20.61,28.65c-2.06,3.98-4.07,7.98-6.01,12.01c-0.35,0.74-0.33,1.1,0.63,1.04
		c0.84-0.05,1.69-0.08,2.52,0.01c1.04,0.1,1.57-0.35,2.02-1.26c3.12-6.36,6.54-12.55,10.5-18.44c6.23-9.27,13.27-17.93,20.06-26.79
		c10.47-13.67,20.12-27.88,28.65-42.85C183.74,126.38,184.46,125.02,185.19,123.67z M187.15,140.22c-1.79,3.75-3.58,7.5-5.38,11.24
		c-4.19,8.7-8.83,17.14-15.06,24.59c-6.63,7.93-12.71,16.23-17.98,25.13c-2.89,4.88-5.91,9.69-8.51,14.74
		c-0.4,0.77-0.42,1.15,0.63,1.12c1.64-0.05,3.28-0.05,4.92,0c0.83,0.03,1.21-0.34,1.5-1.06c0.66-1.63,1.35-3.25,2.1-4.84
		c4.43-9.41,10.32-17.93,16.13-26.51c5.38-7.95,10.73-15.91,14.73-24.69C183.12,153.58,185.13,146.89,187.15,140.22z M111.41,212.65
		c0.37-0.79,0.74-1.58,1.11-2.37c3.72-8.06,7.55-16.07,12.46-23.5c3.71-5.61,7.47-11.22,12.49-15.75
		c6.91-6.23,13.29-12.94,18.95-20.32c5.46-7.11,10.86-14.25,14.78-22.37c1.58-3.26,3.04-6.57,4.32-9.96
		c-0.37,0.48-0.68,0.99-0.97,1.5c-2.01,3.5-4.12,6.95-6.6,10.15c-5.05,6.51-10.48,12.71-15.74,19.04
		c-10.18,12.24-20.07,24.69-29.02,37.88C117.8,194.89,114.41,203.66,111.41,212.65z M222.32,181.13c-0.17,0.4-0.35,0.79-0.51,1.19
		c-1.87,4.62-2.69,9.52-3.67,14.36c-1.29,6.38-2.24,12.81-3.19,19.25c-0.12,0.78,0.1,1.11,0.92,1.1c2.6-0.03,5.19-0.02,7.79,0
		c0.77,0.01,0.95-0.33,0.87-1.04c-0.44-3.89-0.44-7.81-0.58-11.71c-0.19-5.35,0.11-10.71-0.32-16.05
		C223.43,185.85,223.15,183.48,222.32,181.13z M344.78,193.83c0.63-1.76,0.51-3.29,0.3-4.84c-0.38-2.84-0.21-5.79-1.44-8.46
		c-3.19-6.93-7.34-13.18-13.11-18.28c-3.57-3.16-7.49-5.86-11.22-8.81c-4.32-3.41-8.07-7.39-11.57-11.61
		c-2.63-3.17-4.49-6.75-5.27-10.91c-0.83,0.56-0.74,1.19-0.55,1.88c1.07,3.82,2.84,7.29,5.14,10.49
		c4.05,5.63,9.26,10.14,14.37,14.73c8.63,7.76,15.44,16.81,19.93,27.55C342.48,188.27,343.58,190.95,344.78,193.83z M183.59,183.38
		c-6.79,6.8-13.87,13.28-20.23,20.47c-3.25,3.67-5.93,7.73-8.2,12.07c-0.49,0.94-0.28,1.15,0.71,1.12c1.8-0.05,3.6-0.04,5.4-0.01
		c0.68,0.01,1.11-0.2,1.41-0.85c3.68-7.96,8.72-15.06,13.82-22.14C178.99,190.59,181.44,187.09,183.59,183.38z M343.03,216.95
		c-0.12-0.11-0.19-0.2-0.28-0.26c-4.25-2.29-7.34-5.72-9.75-9.84c-2.16-3.7-4.01-7.55-5.92-11.38c-2.02-4.05-4.09-8.06-6.69-11.77
		c-4.08-5.85-9.38-10.45-15.13-14.57c-2.2-1.58-4.44-3.1-7.09-4.64c0.32,0.64,0.48,0.99,0.67,1.32c1.08,1.93,2.47,3.63,4.02,5.21
		c2.94,3,6.32,5.52,9.35,8.43c7.24,6.97,12.64,15.24,16.87,24.29c1.65,3.52,3.89,6.49,6.93,8.89c1.54,1.21,3.07,2.44,4.55,3.71
		C341.29,216.98,342.06,217.15,343.03,216.95z M287.67,193.23c0.01,0.11,0.01,0.23,0.05,0.33c2.81,7.51,6.22,14.81,7.73,22.75
		c0.1,0.53,0.4,0.72,0.92,0.72c2.6-0.01,5.19-0.01,7.79,0c0.73,0,0.8-0.34,0.58-0.91c-0.33-0.81-0.62-1.64-0.99-2.44
		c-1.34-2.87-3.08-5.5-5.01-8C295.35,201.28,291.5,197.29,287.67,193.23z M269.77,88.26c0.21-0.59,0.44-1.18,0.62-1.78
		c0.71-2.34,1.15-4.72,1.33-7.17c0.38-5-0.93-9.21-5.22-12.23c-4.85-3.41-10.19-5.62-15.95-6.88c-0.42-0.09-0.86-0.35-1.46-0.08
		c0.48,0.33,0.83,0.58,1.19,0.82c4.62,3.07,9.36,5.98,13.53,9.7c2.99,2.66,5.21,5.68,5.83,9.75
		C270.04,83.02,270.09,85.61,269.77,88.26z M336.92,153.68c-2.47-2.56-4.96-5.09-7.39-7.68c-4.06-4.31-8.14-8.61-11.12-13.79
		c-3.11-5.42-4.64-11.15-3.65-17.47c0.6-3.79,1.72-7.38,3.19-10.9c0.53-1.26,1.11-2.51,1.35-3.87c-1.8,3.75-3.61,7.49-4.74,11.51
		c-2.09,7.45-1.99,14.69,1.93,21.6c1.89,3.33,4.23,6.31,6.82,9.1C327.38,146.56,331.59,150.77,336.92,153.68z M294.71,225.45
		c-0.76-0.18-0.84,0.23-0.92,0.71c-0.12,0.71,0.22,0.88,0.85,0.96c9.97,1.29,19.94,2.58,29.9,3.91c0.73,0.1,1.15,0.05,1.26-0.76
		c0.12-0.9-0.52-0.81-1.07-0.88c-5.81-0.77-11.62-1.56-17.44-2.32C303.05,226.51,298.82,225.98,294.71,225.45z M167.03,231.09
		c0.16-0.03,0.31-0.07,0.47-0.09c7.04-0.91,14.08-1.82,21.12-2.73c2.93-0.38,5.85-0.79,8.78-1.16c0.65-0.08,0.91-0.28,0.83-0.98
		c-0.09-0.74-0.44-0.78-1.06-0.68c-1.22,0.2-2.45,0.32-3.68,0.48c-5.77,0.75-11.55,1.51-17.32,2.27c-3.09,0.4-6.17,0.81-9.26,1.21
		c-0.55,0.07-0.81,0.33-0.68,0.87C166.34,230.7,166.38,231.21,167.03,231.09z M307.74,202.34c0.16,1.24,0.54,2.11,0.94,2.97
		c1.64,3.56,3.97,6.75,5.57,10.32c0.51,1.14,1.2,1.5,2.4,1.43c0.88-0.05,1.01-0.31,0.74-1.08c-1.2-3.46-2.81-6.69-5.17-9.52
		C310.98,204.95,309.62,203.57,307.74,202.34z M215.95,198.64c-0.09-0.04-0.18-0.07-0.27-0.11c-1.27,2.66-2.61,5.29-3.8,7.98
		c-1.39,3.14-2.64,6.34-3.99,9.5c-0.34,0.8-0.19,1.05,0.69,1.03c3.37-0.08,2.64,0.41,3.4-2.62c0.01-0.04,0.02-0.08,0.03-0.11
		C213.32,209.08,214.64,203.86,215.95,198.64z"/>
	<path d="M291.33,8.73c0.36-0.17,0.63,0.07,0.89,0.21c10.23,5.22,19.68,11.47,27.12,20.41c2.23,2.68,4.08,5.64,6.38,8.25
		c0.5,0.57,0.99,1.3,0.38,2.05c-0.61,0.75-1.33,1.27-2.48,0.91c-2.21-0.69-4.49-1.11-6.8-1.4c-1.06-0.13-2.03-0.07-2.99,0.5
		c-2.05,1.2-4.23,2.04-6.61,2.4c-1.67,0.25-3.29,0.07-4.86-0.4c-5.17-1.58-10.33-1.41-15.5-0.11c-0.87,0.22-1.66,0.08-2.47-0.14
		c-3.89-1.09-7.77-2.17-11.79-2.67c-3.45-0.43-6.92-0.7-10.4-0.59c-0.87,0.03-1.62-0.16-2.37-0.63c-2.95-1.86-6.29-2.55-9.67-2.96
		c-3.8-0.46-7.25-1.55-10.45-3.78c-4.87-3.39-10.51-5.21-16.01-7.28c-2.24-0.84-4.47-1.73-6.83-2.25c-2.37-0.52-4.75-0.54-7.15-0.24
		c-5.31,0.67-5.91,0.6-10.26-1.59c0.54,0.94,0.1,1.54-0.42,2.08c-0.64,0.66-1.31,1.29-1.99,1.91c-0.64,0.6-0.57,0.93,0.29,1.21
		c2.09,0.69,4.11,1.57,6.07,2.56c0.29,0.14,0.57,0.3,0.84,0.46c0.46,0.28,0.93,0.6,0.65,1.23c-0.26,0.6-0.78,0.58-1.33,0.42
		c-2.03-0.6-4.06-1.2-6.15-1.6c-1.48-0.29-2.97-0.58-4.47-0.79c3.17,1.09,6.35,2.16,9.45,3.42c1.11,0.45,2.21,0.93,3.31,1.4
		c0.48,0.21,0.82,0.53,0.7,1.11c-0.11,0.52-0.53,0.69-0.99,0.71c-6.1,0.32-12.06-0.14-17.59-3.06c-0.66-0.35-1.48-0.73-0.91-1.72
		c0.52-0.9,1.24-1.01,2.12-0.42c0.49,0.33,1.07,0.54,1.62,0.78c0.21,0.09,0.43,0.14,0.73,0.08c-0.6-0.5-1.21-0.98-1.79-1.49
		c-0.41-0.36-0.61-1.03-0.13-1.22c0.95-0.37,0.96-1.21,1.33-1.89c1-1.82,2.33-3.45,4.25-4.26c1.69-0.71,2.98-1.9,4.42-2.92
		c10.9-7.74,22.71-13.36,36.05-15.43c4.22-0.66,8.43-1.39,12.68-1.83c3.07-0.32,6.15-0.09,9.22,0.18
		c5.97,0.53,11.92,1.23,17.77,2.57c1,0.23,1.86,0.64,2.65,1.3c2.85,2.39,5.66,4.83,8.62,7.08c6.63,5.05,10.95,11.78,14.22,19.28
		c0.78,1.79,1.57,3.59,2.29,5.41c0.34,0.86,0.86,1.26,1.78,1.3c1.62,0.06,3.18-0.16,4.73-0.6c0.78-0.23,1.02-0.57,0.66-1.38
		c-3.59-7.91-7.88-15.37-14.02-21.63c-1.37-1.4-2.8-2.74-4.2-4.11C291.7,9.31,291.31,9.17,291.33,8.73z M255.73,4.94
		c0.34,0.26,0.67,0.53,1.02,0.79c6.22,4.52,12.13,9.42,17.22,15.21c4.09,4.65,8.05,9.43,10.85,15.02c0.28,0.55,0.66,0.61,1.17,0.54
		c1.93-0.3,3.86-0.63,5.8-0.86c0.82-0.1,0.84-0.35,0.43-0.94c-1.27-1.84-2.47-3.74-3.8-5.53c-5.38-7.28-11.53-13.8-19.18-18.77
		C265.12,7.72,260.71,5.71,255.73,4.94z M259.62,32.06c-2.7-2.94-5.05-6.04-6.82-9.58c-2.3-4.62-3.47-9.6-4.7-14.57
		c-0.44-1.77-0.88-3.53-1.33-5.32c-0.5,0.19-0.55,0.54-0.67,0.82c-1.1,2.36-2.08,4.78-2.57,7.34c-1.27,6.74-0.84,13.08,4.55,18.16
		c0.29,0.27,0.48,0.62,0.94,0.68C252.63,30.05,256.15,30.91,259.62,32.06z M240.45,7.17c-0.03-0.04-0.06-0.09-0.09-0.13
		c-1.99,1.06-4,2.1-5.98,3.18c-3.8,2.07-7.31,4.58-10.75,7.19c-0.89,0.67-0.7,0.93,0.24,1.23c1.1,0.34,2.2,0.73,3.26,1.19
		c0.8,0.35,1.3,0.2,1.84-0.47c1.89-2.33,3.91-4.54,6.01-6.68C236.79,10.82,238.62,9,240.45,7.17z M207.58,16.32
		c2.06-0.24,4.1-0.21,6.13-0.17c0.82,0.02,1.45-0.23,2.08-0.71c3.62-2.77,7.27-5.5,10.9-8.25c0.52-0.39,1.02-0.81,1.53-1.22
		C221.03,8.82,214.18,12.31,207.58,16.32z M236.85,16.47c-0.22,0.7-0.49,1.58-0.78,2.45c-0.36,1.1-0.73,2.2-1.11,3.3
		c-0.11,0.33-0.15,0.65,0.21,0.84c0.46,0.23,0.92,0.63,1.43,0.51c0.43-0.1,0.24-0.62,0.24-0.95
		C236.85,20.5,236.85,18.38,236.85,16.47z"/>
	<path class="st0" d="M245.65,452.07c-8.87-0.08-17.72-0.54-26.56-1.38c-12.34-1.18-24.6-2.93-36.76-5.32
		c-2.21-0.43-2.21-0.43-1.75-2.56c0.36-1.7,0.38-1.71,2.05-1.38c10.16,2.03,20.38,3.62,30.67,4.79c6.15,0.7,12.32,1.22,18.5,1.56
		c6.35,0.36,12.7,0.57,19.05,0.39c6.14-0.17,12.28-0.54,18.41-1.08c10.63-0.94,21.2-2.34,31.72-4.16c2.6-0.45,5.19-0.94,7.77-1.49
		c0.97-0.21,1.45-0.06,1.67,1.02c0.49,2.4,0.54,2.38-1.83,2.85c-9.45,1.87-18.97,3.36-28.53,4.5c-6.9,0.83-13.82,1.47-20.76,1.79
		C254.75,451.83,250.21,452.1,245.65,452.07z"/>
	<path class="st0" d="M244.96,423.28c-7.73-0.07-15.98-0.55-24.21-1.4c-9.91-1.02-19.75-2.44-29.52-4.35
		c-1.86-0.36-1.86-0.36-1.43-2.26c0.06-0.27,0.16-0.54,0.19-0.82c0.09-0.88,0.52-1.1,1.39-0.92c5.92,1.21,11.87,2.21,17.84,3.05
		c6.61,0.93,13.24,1.65,19.89,2.16c7.14,0.55,14.29,0.84,21.44,0.63c5.75-0.16,11.48-0.55,17.21-1.09
		c9.48-0.89,18.89-2.21,28.25-3.9c1.34-0.24,2.67-0.5,4-0.79c0.6-0.13,0.92,0.06,1.03,0.65c0.01,0.08,0.05,0.15,0.06,0.23
		c0.55,2.98,1.07,2.53-1.92,3.1c-9.54,1.81-19.13,3.31-28.8,4.28c-5.8,0.58-11.61,1.03-17.44,1.24
		C250.46,423.18,247.98,423.2,244.96,423.28z"/>
	<path class="st0" d="M244.72,438.13c-7.51-0.17-15.8-0.63-24.07-1.59c-7.59-0.88-15.13-2.02-22.63-3.45
		c-1.82-0.35-1.82-0.36-1.41-2.16c0.06-0.27,0.14-0.54,0.18-0.82c0.12-1.02,0.67-1.15,1.6-0.98c3.93,0.74,7.86,1.46,11.81,2.08
		c6.75,1.06,13.53,1.89,20.35,2.39c5.98,0.44,11.97,0.82,17.96,0.65c7.27-0.2,14.52-0.7,21.74-1.54c7.59-0.87,15.13-2.01,22.62-3.5
		c0.88-0.18,1.22,0.1,1.42,0.93c0.63,2.51,0.65,2.51-1.88,3c-8.72,1.66-17.48,3-26.33,3.83c-5.09,0.48-10.19,0.87-15.3,0.99
		C249.04,438,247.28,438.1,244.72,438.13z"/>
	<path class="st0" d="M344.6,4.31c1.08,0.23,2.08,0.44,3.08,0.67c6.41,1.53,12.82,3.08,19.24,4.6c0.73,0.17,1.32,0.5,1.81,1.07
		c4.74,5.62,9.49,11.23,14.23,16.84c0.15,0.18,0.28,0.37,0.43,0.57c-0.34,0.42-0.7,0.16-1.01,0.09c-7.08-1.67-14.15-3.37-21.23-5.04
		c-0.82-0.19-1.41-0.59-1.96-1.24c-4.65-5.53-9.35-11.03-14.03-16.54C344.94,5.08,344.62,4.86,344.6,4.31z"/>
	<path class="st0" d="M107.63,28.07c1.54-1.81,3.06-3.59,4.57-5.37c3.41-4.02,6.83-8.03,10.23-12.06c0.4-0.48,0.83-0.82,1.45-0.97
		c7.04-1.66,14.08-3.33,21.12-4.99c0.35-0.08,0.85-0.44,1.08,0.01c0.22,0.4-0.29,0.68-0.54,0.97c-4.62,5.45-9.26,10.9-13.87,16.36
		c-0.44,0.52-0.89,0.86-1.55,1.02c-7.12,1.69-14.23,3.39-21.35,5.08C108.46,28.21,108.11,28.37,107.63,28.07z"/>
	<path class="st0" d="M13.19,194.08c-0.44-0.27-0.53-0.68-0.71-1.03c-3.09-6.14-6.16-12.29-9.26-18.43
		c-0.42-0.83-0.56-1.59-0.37-2.52c1.27-6.06,2.48-12.13,3.73-18.2c0.08-0.4-0.01-0.9,0.46-1.18c0.45,0.15,0.54,0.58,0.71,0.92
		c3.1,6.18,6.19,12.36,9.31,18.54c0.4,0.79,0.51,1.53,0.32,2.41c-1.28,6.1-2.51,12.21-3.77,18.32
		C13.54,193.29,13.59,193.72,13.19,194.08z"/>
	<path class="st0" d="M14.78,203.08c-0.29,6.34-0.57,12.69-0.87,19.03c-0.02,0.41,0.13,1.02-0.38,1.14c-0.4,0.09-0.58-0.48-0.8-0.79
		c-4.04-5.66-8.05-11.35-12.11-17c-0.71-0.99-0.62-2.02-0.57-3.09c0.22-4.23,0.45-8.46,0.66-12.68c0.09-1.8,0.17-3.59,0.26-5.39
		c0.02-0.3-0.1-0.72,0.33-0.79c0.31-0.06,0.43,0.31,0.59,0.53c4.17,5.86,8.34,11.73,12.51,17.6
		C14.72,202.07,14.91,202.53,14.78,203.08z"/>
	<path class="st0" d="M16.69,252.18c-0.67-0.2-0.93-0.69-1.26-1.06c-4.59-5.21-9.16-10.44-13.75-15.66
		c-0.64-0.73-0.64-1.63-0.68-2.48c-0.28-5.54-0.53-11.08-0.79-16.62c-0.03-0.56-0.13-1.11-0.16-1.67c-0.02-0.31-0.16-0.71,0.17-0.88
		c0.38-0.2,0.54,0.25,0.73,0.46c1.44,1.6,2.88,3.21,4.3,4.84c3.13,3.58,6.2,7.2,9.4,10.71c0.91,0.99,1.13,2.07,1.19,3.26
		c0.27,5.5,0.53,11,0.77,16.5C16.62,250.4,16.92,251.22,16.69,252.18z"/>
	<path class="st0" d="M17.57,165.76c-0.51-1.3-0.91-2.28-1.29-3.28c-2.27-5.94-4.53-11.88-6.81-17.81c-0.19-0.5-0.31-0.96-0.14-1.51
		c1.97-6.29,3.93-12.59,5.9-18.89c0.06-0.18,0.16-0.36,0.24-0.54c0.57,0.09,0.57,0.57,0.7,0.9c2.53,6.57,5.04,13.14,7.56,19.71
		c0.2,0.53,0.31,1.05,0.13,1.63c-1.97,6.29-3.93,12.59-5.89,18.89C17.9,165.06,17.8,165.23,17.57,165.76z"/>
	<path class="st0" d="M333.85,402.07c-1.6,2.6-3.08,5-4.56,7.4c-2.36,3.81-4.73,7.6-7.07,11.41c-0.39,0.63-0.8,1.16-1.54,1.42
		c-6.21,2.23-12.4,4.48-18.6,6.72c-0.15,0.05-0.31,0.07-0.52,0.12c-0.14-0.48,0.2-0.77,0.39-1.08c3.72-6.01,7.46-12.02,11.19-18.03
		c0.3-0.49,0.66-0.87,1.22-1.08c6.2-2.24,12.4-4.49,18.6-6.73C333.16,402.16,333.4,402.15,333.85,402.07z"/>
	<path class="st0" d="M2.49,244.77c1.75,1.47,3.47,2.89,5.17,4.32c3.85,3.24,7.69,6.51,11.56,9.73c0.68,0.57,1.1,1.19,1.27,2.07
		c1.21,6.03,2.47,12.06,3.71,18.09c0.09,0.46,0.15,0.92,0.25,1.54c-1.15-0.49-1.87-1.32-2.67-1.99c-4.88-4.07-9.72-8.19-14.59-12.27
		c-0.45-0.37-0.8-0.77-0.91-1.35c-1.31-6.42-2.62-12.85-3.93-19.27C2.3,245.41,2.18,245.17,2.49,244.77z"/>
	<path class="st0" d="M302.3,431.18c1.87-0.69,3.62-1.33,5.38-1.97c4.32-1.57,8.65-3.11,12.95-4.72c1.07-0.4,2.03-0.41,3.12-0.04
		c6.4,2.16,12.82,4.26,19.23,6.38c0.41,0.13,0.8,0.29,1.4,0.51c-0.81,0.62-1.59,0.79-2.31,1.05c-5.44,1.99-10.89,3.95-16.33,5.95
		c-0.91,0.34-1.73,0.36-2.66,0.04c-6.48-2.17-12.97-4.29-19.46-6.44C303.21,431.8,302.74,431.78,302.3,431.18z"/>
	<path class="st0" d="M35.63,307.72c-2.49-1.51-4.67-2.82-6.84-4.16c-4.02-2.47-8.03-4.96-12.06-7.4c-0.76-0.46-1.23-1.04-1.54-1.88
		c-2.11-5.83-4.27-11.64-6.41-17.45c-0.13-0.36-0.5-0.83-0.2-1.11c0.41-0.37,0.8,0.16,1.13,0.37c5.94,3.63,11.86,7.28,17.78,10.92
		c0.57,0.35,0.98,0.79,1.21,1.43c2.23,6.12,4.48,12.24,6.71,18.36C35.48,306.97,35.5,307.17,35.63,307.72z"/>
	<path class="st0" d="M37.77,306.66c-0.54-0.75-0.7-1.54-0.98-2.28c-2.04-5.51-4.06-11.02-6.1-16.53c-0.23-0.62-0.29-1.23-0.09-1.87
		c2.23-6.84,4.46-13.68,6.69-20.52c0.07-0.21,0.2-0.4,0.45-0.87c0.34,0.88,0.61,1.52,0.85,2.17c2.02,5.47,4.01,10.96,6.05,16.42
		c0.37,0.99,0.37,1.88,0.04,2.89c-2.1,6.33-4.15,12.69-6.22,19.03C38.32,305.59,38.25,306.12,37.77,306.66z"/>
	<path class="st0" d="M32.13,185.02c0,2.52,0.05,4.99-0.02,7.45c-0.06,2.27-0.27,4.54-0.39,6.82c-0.11,2.03-0.19,4.07-0.26,6.11
		c-0.02,0.51-0.19,0.92-0.52,1.3c-4.78,5.48-9.56,10.96-14.34,16.45c-0.15,0.17-0.27,0.41-0.66,0.33c-0.19-0.62-0.08-1.3-0.05-1.96
		c0.21-3.91,0.44-7.81,0.65-11.72c0.11-2.15,0.19-4.31,0.27-6.47c0.02-0.63,0.23-1.15,0.65-1.63c4.79-5.47,9.57-10.95,14.36-16.43
		C31.91,185.14,32.06,185.07,32.13,185.02z"/>
	<path class="st0" d="M31.41,212.13c0.17,2.65,0.37,5.23,0.5,7.82c0.2,4.07,0.35,8.14,0.55,12.21c0.04,0.8-0.18,1.45-0.65,2.11
		c-4.01,5.64-7.98,11.29-11.98,16.94c-0.21,0.29-0.34,0.86-0.84,0.67c-0.37-0.14-0.24-0.63-0.26-0.98
		c-0.32-5.86-0.61-11.72-0.95-17.58c-0.09-1.48,0.14-2.75,1.07-4.02c3.97-5.46,7.82-11.01,11.73-16.53
		C30.76,212.51,30.86,212.17,31.41,212.13z"/>
	<path class="st0" d="M15.42,194.67c0.5-2.55,0.96-4.89,1.43-7.22c0.85-4.19,1.72-8.37,2.56-12.56c0.14-0.69,0.38-1.27,0.94-1.74
		c5.5-4.62,10.99-9.26,16.49-13.89c0.15-0.12,0.32-0.22,0.54-0.37c0.29,0.47,0.1,0.9,0.02,1.29c-1.25,6.19-2.51,12.37-3.76,18.55
		c-0.11,0.53-0.29,0.98-0.71,1.34c-5.64,4.77-11.26,9.56-16.9,14.33C15.95,194.47,15.82,194.49,15.42,194.67z"/>
	<path class="st0" d="M19.73,166.39c0.34-1.15,0.6-2.05,0.88-2.95c1.71-5.49,3.42-10.98,5.12-16.48c0.22-0.72,0.6-1.26,1.23-1.69
		c5.71-3.89,11.4-7.81,17.1-11.72c0.1-0.07,0.19-0.15,0.3-0.2c0.27-0.12,0.51-0.52,0.83-0.24c0.25,0.21,0.03,0.53-0.05,0.79
		c-0.49,1.64-1,3.29-1.51,4.93c-1.38,4.42-2.77,8.84-4.14,13.27c-0.21,0.67-0.53,1.21-1.13,1.62c-5.87,4.02-11.72,8.06-17.58,12.08
		C20.54,165.97,20.25,166.1,19.73,166.39z"/>
	<path class="st0" d="M24.61,137c-0.33-1.48-0.64-2.87-0.94-4.26c-1.27-5.73-2.53-11.47-3.82-17.19c-0.17-0.74-0.15-1.39,0.19-2.08
		c2.78-5.71,5.54-11.43,8.32-17.14c0.15-0.3,0.2-0.7,0.62-0.83c0.38,0.32,0.35,0.8,0.44,1.21c1.51,6.78,3,13.57,4.51,20.35
		c0.15,0.66,0.13,1.24-0.17,1.85c-2.8,5.74-5.58,11.5-8.38,17.25C25.25,136.43,25.19,136.77,24.61,137z"/>
	<path class="st0" d="M66.98,356.49c-2.28-0.7-4.26-1.29-6.22-1.92c-5.07-1.6-10.13-3.22-15.2-4.83c-0.55-0.17-1.01-0.42-1.34-0.92
		c-3.76-5.57-7.53-11.12-11.29-16.69c-0.04-0.06-0.03-0.15-0.05-0.25c0.34-0.33,0.67-0.05,0.97,0.05
		c6.71,2.12,13.41,4.26,20.12,6.38c0.66,0.21,1.22,0.5,1.63,1.12c3.66,5.44,7.34,10.87,11.01,16.3
		C66.68,355.86,66.73,356.01,66.98,356.49z"/>
	<path class="st0" d="M329.27,421.03c1.14-2.64,2.24-5.21,3.34-7.77c1.73-4,3.47-7.99,5.17-12.01c0.44-1.04,1.07-1.76,2.1-2.3
		c5.45-2.87,10.85-5.82,16.27-8.74c0.3-0.16,0.56-0.48,1.11-0.27c-0.51,1.21-1,2.41-1.51,3.6c-2.31,5.36-4.66,10.71-6.93,16.08
		c-0.48,1.14-1.22,1.87-2.3,2.44c-5.4,2.87-10.77,5.81-16.15,8.72C330.11,420.93,329.85,421.15,329.27,421.03z"/>
	<path class="st0" d="M38.34,111.88c0.22-0.95,0.75-1.57,1.15-2.23c3.02-4.99,6.07-9.96,9.1-14.94c0.39-0.64,0.83-1.14,1.55-1.41
		c6.67-2.46,13.34-4.93,20-7.39c0.25-0.09,0.52-0.14,1.14-0.3c-0.95,1.59-1.74,2.94-2.56,4.27c-2.58,4.23-5.17,8.45-7.74,12.68
		c-0.47,0.77-0.98,1.39-1.88,1.72c-6.56,2.41-13.11,4.86-19.66,7.29C39.14,111.7,38.8,111.76,38.34,111.88z"/>
	<path class="st0" d="M19.16,303.75c1.25,0.59,2.4,1.11,3.54,1.67c5.42,2.64,10.84,5.29,16.26,7.93c0.67,0.33,1.19,0.73,1.53,1.43
		c2.79,5.8,5.6,11.58,8.4,17.37c0.12,0.24,0.17,0.51,0.25,0.75c-0.41,0.25-0.68-0.02-0.94-0.15c-6.32-3.07-12.64-6.15-18.97-9.22
		c-0.72-0.35-1.23-0.83-1.57-1.55c-2.71-5.65-5.45-11.3-8.17-16.94C19.32,304.71,19.1,304.41,19.16,303.75z"/>
	<path class="st0" d="M47.2,290.34c0.68,0.83,0.97,1.88,1.44,2.83c2.43,5,4.83,10.01,7.27,15c0.37,0.76,0.49,1.46,0.3,2.3
		c-1.56,6.94-3.08,13.9-4.61,20.84c-0.03,0.15-0.11,0.29-0.17,0.42c-0.44,0.08-0.49-0.26-0.6-0.49c-2.85-5.86-5.69-11.72-8.54-17.59
		c-0.24-0.49-0.29-0.97-0.17-1.51c1.57-7.1,3.14-14.21,4.7-21.31C46.86,290.64,46.9,290.44,47.2,290.34z"/>
	<path class="st0" d="M27.04,138.07c-0.18-0.39,0.1-0.68,0.25-0.98c2.75-5.69,5.51-11.37,8.26-17.06c0.31-0.63,0.69-1.12,1.35-1.45
		c6.41-3.1,12.8-6.22,19.2-9.34c0.24-0.12,0.47-0.32,0.79-0.18c0.19,0.35-0.06,0.61-0.19,0.88c-2.78,5.76-5.58,11.51-8.36,17.28
		c-0.29,0.61-0.69,1.04-1.3,1.33c-6.4,3.11-12.8,6.23-19.2,9.35C27.6,138.02,27.37,138.23,27.04,138.07z"/>
	<path class="st0" d="M371.98,417.18c-1.02,0.89-2.07,1.29-3.03,1.82c-4.84,2.65-9.7,5.26-14.55,7.89c-0.54,0.29-1.07,0.51-1.71,0.4
		c-7.12-1.25-14.25-2.5-21.37-3.75c-0.19-0.03-0.37-0.11-0.61-0.18c0.12-0.56,0.59-0.68,0.94-0.87c5.52-2.99,11.05-5.96,16.57-8.94
		c0.59-0.32,1.18-0.45,1.85-0.33c6.93,1.21,13.86,2.42,20.79,3.64C371.14,416.91,371.44,417.03,371.98,417.18z"/>
	<path class="st0" d="M36.18,110.52c-0.21-1.58-0.44-3.1-0.62-4.63c-0.71-5.87-1.4-11.74-2.12-17.6c-0.06-0.51,0.02-0.94,0.29-1.37
		c3.5-5.73,7-11.47,10.49-17.2c0.04-0.06,0.12-0.09,0.26-0.19c0.54,1.07,0.46,2.25,0.6,3.35c0.76,5.98,1.45,11.97,2.19,17.96
		c0.15,1.21-0.08,2.21-0.74,3.27c-3.18,5.09-6.26,10.23-9.39,15.34C36.92,109.81,36.8,110.28,36.18,110.52z"/>
	<path class="st0" d="M50.03,356.33c3.22,0.68,6.19,1.29,9.14,1.93c4.22,0.91,8.43,1.86,12.65,2.75c0.71,0.15,1.26,0.44,1.72,0.99
		c4.14,5.02,8.29,10.04,12.44,15.05c0.12,0.15,0.3,0.28,0.21,0.55c-0.56,0.21-1.08-0.09-1.61-0.2c-6.72-1.42-13.44-2.87-20.16-4.3
		c-0.48-0.1-0.91-0.26-1.24-0.66c-4.25-5.14-8.51-10.27-12.76-15.41C50.33,356.92,50.27,356.76,50.03,356.33z"/>
	<path class="st0" d="M52.18,86.63c2.46-2.97,4.77-5.77,7.08-8.57c1.81-2.19,3.64-4.35,5.42-6.56c0.71-0.88,1.52-1.41,2.66-1.65
		c6.61-1.37,13.21-2.81,19.82-4.21c0.37-0.08,0.89-0.4,1.12-0.04c0.31,0.47-0.3,0.74-0.56,1.05c-3.98,4.85-7.98,9.68-11.97,14.52
		c-0.31,0.38-0.64,0.7-1.15,0.81c-7.27,1.56-14.54,3.12-21.8,4.68C52.69,86.68,52.57,86.65,52.18,86.63z"/>
	<path class="st0" d="M380.1,374.74c-0.82,2.57-1.52,4.81-2.24,7.04c-1.51,4.72-3.04,9.43-4.54,14.15
		c-0.23,0.72-0.58,1.26-1.22,1.69c-5.24,3.52-10.46,7.06-15.7,10.59c-0.29,0.19-0.62,0.61-0.93,0.4c-0.42-0.28-0.04-0.73,0.07-1.08
		c2.09-6.54,4.21-13.08,6.29-19.63c0.28-0.89,0.74-1.52,1.52-2.04c5.29-3.52,10.56-7.07,15.83-10.6
		C379.36,375.14,379.58,375.04,380.1,374.74z"/>
	<path class="st0" d="M87.5,24.66c-0.3,1.88-0.6,3.79-0.92,5.7c-0.86,5.12-1.75,10.23-2.58,15.36c-0.19,1.21-0.69,2.12-1.61,2.94
		c-4,3.55-7.95,7.16-11.92,10.74c-0.79,0.71-1.59,1.39-2.62,2.29c0.06-2.16,0.54-3.92,0.84-5.71c0.91-5.52,1.87-11.02,2.8-16.53
		c0.09-0.53,0.24-0.98,0.66-1.36c4.89-4.41,9.78-8.83,14.66-13.25C86.96,24.71,87.09,24.54,87.5,24.66z"/>
	<path class="st0" d="M32.83,238.74c0.31,0.15,0.28,0.46,0.34,0.73c1.29,6.3,2.58,12.6,3.89,18.89c0.13,0.62,0.09,1.16-0.2,1.73
		c-3.23,6.43-6.44,12.86-9.66,19.29c-0.1,0.21-0.17,0.46-0.44,0.54c-0.35-0.1-0.32-0.41-0.38-0.67c-1.28-6.22-2.55-12.44-3.85-18.66
		c-0.18-0.87-0.08-1.62,0.32-2.41c3.15-6.24,6.27-12.5,9.4-18.75C32.39,239.17,32.45,238.81,32.83,238.74z"/>
	<path class="st0" d="M68.72,355.04c-1.26-1.83-2.38-3.44-3.48-5.05c-2.58-3.8-5.13-7.62-7.72-11.41c-0.47-0.69-0.71-1.4-0.64-2.24
		c0.38-5.01,0.76-10.02,1.12-15.04c0.14-1.91,0.23-3.82,0.37-5.73c0.02-0.34-0.01-0.84,0.36-0.95c0.42-0.12,0.54,0.39,0.73,0.67
		c3.52,5.19,7.03,10.38,10.56,15.57c0.4,0.59,0.61,1.2,0.56,1.91c-0.37,4.85-0.74,9.7-1.1,14.56c-0.13,1.71-0.24,3.42-0.33,5.14
		C69.1,353.24,69.05,354.02,68.72,355.04z"/>
	<path class="st0" d="M379.99,393.87c0.41-2.51,0.82-5.01,1.25-7.52c0.76-4.53,1.56-9.06,2.28-13.6c0.2-1.25,0.7-2.15,1.68-3.01
		c3.7-3.23,7.31-6.57,10.95-9.87c1.09-0.98,2.18-1.96,3.44-3.09c0.09,1.53-0.29,2.79-0.5,4.05c-1,6.03-2.04,12.06-3.05,18.09
		c-0.09,0.53-0.23,1-0.64,1.37c-3.79,3.43-7.58,6.87-11.37,10.3c-1.26,1.14-2.54,2.26-3.8,3.4
		C380.15,393.95,380.07,393.91,379.99,393.87z"/>
	<path class="st0" d="M64.51,45.74c0,3.18,0.1,6.36-0.04,9.53c-0.08,1.96-0.07,3.91-0.13,5.87c-0.08,2.31-0.17,4.63-0.22,6.94
		c-0.01,0.65-0.27,1.16-0.66,1.63c-4.16,5.01-8.32,10.02-12.48,15.02c-0.1,0.11-0.22,0.2-0.53,0.48c0-1.85-0.07-3.5,0.03-5.15
		c0.05-0.96,0.13-1.91,0.14-2.87c0.09-4.71,0.18-9.42,0.26-14.13c0.01-0.74,0.15-1.4,0.65-1.99c4.13-4.93,8.23-9.88,12.35-14.81
		C64.05,46.05,64.13,45.73,64.51,45.74z"/>
	<path class="st0" d="M88.04,376c-1.26-1.11-2.2-2.5-3.26-3.76c-2.83-3.36-5.48-6.87-8.43-10.12c-1.49-1.64-1.88-3.42-1.92-5.43
		c-0.1-5.83-0.19-11.66-0.29-17.49c0-0.12-0.02-0.24,0-0.36c0.13-0.66-0.48-1.71,0.05-1.88c0.73-0.23,1.09,0.86,1.54,1.4
		c3.85,4.59,7.65,9.22,11.48,13.82c0.47,0.56,0.62,1.17,0.63,1.88c0.08,5.63,0.18,11.26,0.28,16.89c0.02,1.28,0.14,2.55,0.19,3.82
		C88.33,375.14,88.46,375.56,88.04,376z"/>
	<path class="st0" d="M108.41,47.36c-0.73,1.22-1.63,1.72-2.36,2.38c-4.09,3.75-8.22,7.46-12.3,11.21c-0.76,0.7-1.62,1-2.59,1.06
		c-4.1,0.27-8.2,0.51-12.3,0.78c-2.75,0.18-5.49,0.38-8.24,0.58c-0.31,0.02-0.71,0.25-0.89-0.07c-0.2-0.35,0.23-0.55,0.45-0.75
		c3.07-2.8,6.14-5.59,9.21-8.38c1.42-1.29,2.87-2.54,4.24-3.88c1-0.98,2.12-1.39,3.53-1.47c5.58-0.31,11.14-0.74,16.72-1.11
		C105.29,47.62,106.72,47.65,108.41,47.36z"/>
	<path class="st0" d="M401.62,42.24c-1.56,0.6-2.99,0.41-4.36,0.54c-4.65,0.43-9.31,0.71-13.96,1.06c-0.99,0.07-2,0.08-2.98,0.26
		c-1.42,0.26-2.51-0.26-3.65-1.04c-4.82-3.29-9.69-6.5-14.53-9.75c-0.41-0.27-0.95-0.44-1.13-1.13c1.17-0.11,2.3-0.24,3.43-0.32
		c5.81-0.42,11.63-0.74,17.42-1.31c1.72-0.17,2.96,0.33,4.29,1.24c4.74,3.25,9.54,6.43,14.31,9.65
		C400.8,41.64,401.11,41.88,401.62,42.24z"/>
	<path class="st0" d="M397.12,400.72c-0.08,0.48-0.47,0.58-0.75,0.77c-5.24,3.53-10.49,7.05-15.72,10.59
		c-0.67,0.46-1.32,0.56-2.13,0.49c-3.62-0.32-7.25-0.56-10.87-0.82c-3.34-0.24-6.69-0.49-10.03-0.73c-0.27-0.02-0.65,0.04-0.72-0.28
		c-0.08-0.38,0.33-0.5,0.58-0.67c4.14-2.8,8.29-5.58,12.44-8.37c0.66-0.45,1.39-0.82,1.98-1.34c1.42-1.27,3.04-1.51,4.87-1.34
		c5.77,0.52,11.54,0.93,17.31,1.41C395.08,400.5,396.14,400.25,397.12,400.72z"/>
	<path class="st0" d="M378.3,6.61c0.7,0.02,1.03,0.4,1.42,0.66c5.08,3.4,10.15,6.82,15.23,10.22c0.58,0.39,1.03,0.82,1.26,1.52
		c2.12,6.62,4.28,13.23,6.41,19.85c0.13,0.4,0.35,0.81,0.21,1.27c-0.48,0.08-0.74-0.27-1.05-0.48c-5.18-3.47-10.35-6.95-15.53-10.42
		c-0.58-0.39-1.03-0.83-1.25-1.53c-2.16-6.78-4.35-13.54-6.52-20.32C378.4,7.18,378.37,6.95,378.3,6.61z"/>
	<path class="st0" d="M70.65,379.89c1.34,0.07,2.68,0.12,4.01,0.21c4.46,0.3,8.91,0.61,13.37,0.92c1.39,0.1,2.79,0.18,4.18,0.28
		c0.98,0.07,1.84,0.38,2.59,1.07c4.57,4.17,9.16,8.32,13.73,12.49c0.25,0.23,0.61,0.4,0.6,0.98c-1.46-0.08-2.91-0.15-4.36-0.25
		c-2.86-0.2-5.73-0.44-8.59-0.64c-2.91-0.2-5.81-0.39-8.72-0.51c-1.35-0.06-2.18-0.91-3.06-1.7c-4.4-3.95-8.77-7.92-13.14-11.89
		C71.01,380.62,70.66,380.44,70.65,379.89z"/>
	<path class="st0" d="M112.77,6.71c-0.54,1.73-1.06,3.47-1.61,5.19c-1.66,5.17-3.34,10.34-5,15.51c-0.21,0.66-0.46,1.24-1.08,1.65
		c-5.45,3.64-10.88,7.3-16.32,10.95c-0.16,0.11-0.34,0.19-0.51,0.28c-0.32-0.36-0.07-0.65,0.02-0.92
		c2.19-6.81,4.39-13.61,6.58-20.42c0.17-0.52,0.45-0.91,0.9-1.22c5.38-3.6,10.75-7.22,16.12-10.82
		C112.09,6.77,112.3,6.55,112.77,6.71z"/>
	<path class="st0" d="M89.46,42.21c1.84-1.26,3.51-2.43,5.19-3.56c3.75-2.52,7.52-5.01,11.26-7.54c0.77-0.52,1.51-0.68,2.46-0.59
		c3.45,0.34,6.92,0.55,10.38,0.81c3.46,0.25,6.93,0.49,10.39,0.75c0.27,0.02,0.65-0.04,0.69,0.3c0.05,0.37-0.36,0.49-0.61,0.66
		c-4.24,2.86-8.49,5.72-12.73,8.57c-0.6,0.4-1.25,0.74-1.78,1.21c-1.29,1.15-2.76,1.4-4.43,1.25c-5.76-0.51-11.53-0.93-17.3-1.4
		C91.87,42.58,90.73,42.78,89.46,42.21z"/>
	<path class="st0" d="M93.82,400.72c1.78-0.37,3.45-0.35,5.1-0.49c4.89-0.41,9.79-0.73,14.68-1.16c2.07-0.18,3.88,0,5.71,1.32
		c4.6,3.32,9.39,6.39,14.09,9.57c0.3,0.2,0.88,0.31,0.7,0.81c-0.13,0.37-0.64,0.21-0.98,0.24c-6.05,0.47-12.1,0.94-18.15,1.4
		c-1.03,0.08-2.07,0.15-3.11,0.23c-0.42,0.03-0.78-0.13-1.12-0.35c-5.54-3.73-11.08-7.45-16.62-11.18
		C94.07,401.06,94.03,400.98,93.82,400.72z"/>
	<path class="st0" d="M382.73,47.64c0.77-0.37,1.35-0.08,1.93-0.04c3.83,0.26,7.65,0.52,11.48,0.77c2.87,0.19,5.74,0.36,8.61,0.52
		c1,0.05,1.73,0.59,2.41,1.21c3.76,3.41,7.52,6.81,11.26,10.25c1.01,0.93,2.2,1.7,3.03,2.9c-1.08,0-2.09,0.06-3.1-0.01
		c-5.26-0.36-10.52-1.13-15.77-1c-4.03,0.1-6.26-2.26-8.79-4.5c-3.41-3.02-6.77-6.09-10.15-9.15
		C383.35,48.33,383.09,48.02,382.73,47.64z"/>
	<path class="st0" d="M402.86,375.89c-0.25-0.96-0.17-1.96-0.06-2.92c0.15-1.32,0.14-2.63,0.16-3.95c0.09-4.99,0.19-9.99,0.26-14.98
		c0.01-0.82,0.32-1.45,0.82-2.06c4.03-4.86,8.06-9.72,12.08-14.58c0.19-0.23,0.34-0.66,0.7-0.54c0.41,0.14,0.17,0.54,0.15,0.84
		c-0.02,0.48-0.06,0.96-0.07,1.44c-0.1,5.83-0.19,11.67-0.28,17.5c-0.03,2.17-0.62,3.98-2.15,5.71c-3.74,4.21-7.21,8.65-10.8,13
		C403.49,375.59,403.33,375.9,402.86,375.89z"/>
	<path class="st0" d="M381.82,395.67c1.02-1.35,2.33-2.29,3.5-3.35c3.67-3.33,7.38-6.62,11.03-9.97c0.77-0.7,1.63-0.98,2.6-1.05
		c4.1-0.27,8.21-0.51,12.32-0.78c2.79-0.18,5.58-0.4,8.36-0.61c0.26-0.02,0.55-0.17,0.86,0.21c-1.09,1.02-2.17,2.05-3.28,3.06
		c-3.77,3.4-7.55,6.78-11.3,10.2c-0.66,0.6-1.35,0.97-2.22,1.03c-3.95,0.26-7.89,0.51-11.84,0.78c-2.95,0.2-5.89,0.43-8.84,0.64
		C382.65,395.86,382.29,395.98,381.82,395.67z"/>
	<path class="st0" d="M422.33,354.91c-0.61-1.71-0.42-3.33-0.56-4.91c-0.43-5.01-0.53-10.06-1.13-15.05
		c-0.3-2.48,0.49-4.26,1.82-6.15c3.13-4.45,6.13-8.99,9.18-13.48c0.17-0.26,0.38-0.49,0.58-0.75c0.48,0.26,0.44,0.7,0.47,1.07
		c0.34,4.94,0.67,9.88,1.01,14.82c0.14,1.99,0.31,3.98,0.46,5.97c0.05,0.65-0.05,1.26-0.44,1.82c-3.66,5.39-7.31,10.79-10.97,16.19
		C422.67,354.57,422.55,354.67,422.33,354.91z"/>
	<path class="st0" d="M91.6,356.91c1.02,0.9,2.03,1.78,3.03,2.68c3.99,3.62,7.98,7.25,11.98,10.87c0.34,0.3,0.62,0.61,0.7,1.07
		c1.22,7.29,2.45,14.58,3.67,21.87c0.02,0.11-0.04,0.23-0.08,0.45c-1-0.54-1.71-1.35-2.49-2.05c-4.2-3.75-8.36-7.54-12.54-11.32
		c-0.43-0.39-0.72-0.81-0.82-1.41c-1.17-7.01-2.36-14.02-3.54-21.04C91.44,357.7,91.3,357.34,91.6,356.91z"/>
	<path class="st0" d="M135.64,408.59c-0.53,0.02-0.87-0.38-1.25-0.63c-4.98-3.34-9.95-6.7-14.95-10.01
		c-0.92-0.61-1.46-1.33-1.79-2.4c-1.94-6.18-3.97-12.33-5.95-18.5c-0.2-0.63-0.36-1.28-0.54-1.94c0.6-0.07,0.87,0.27,1.19,0.48
		c5.18,3.47,10.36,6.96,15.54,10.43c0.51,0.34,0.91,0.71,1.11,1.34c2.18,6.78,4.38,13.54,6.57,20.32
		C135.66,407.95,135.87,408.25,135.64,408.59z"/>
	<path class="st0" d="M423.17,61.64c-1.96-1.75-3.68-3.28-5.4-4.83c-3.2-2.89-6.4-5.78-9.6-8.67c-0.42-0.38-0.8-0.76-0.9-1.37
		c-1.2-7.17-2.41-14.33-3.62-21.5c-0.04-0.22-0.11-0.46,0.13-0.78c0.97,0.85,1.92,1.67,2.85,2.52c4.12,3.72,8.22,7.45,12.34,11.17
		c0.32,0.29,0.47,0.62,0.54,1.03c1.19,7.09,2.39,14.18,3.59,21.27C423.16,60.75,423.15,61.03,423.17,61.64z"/>
	<path class="st0" d="M438.45,86.63c-1.83-0.38-3.66-0.74-5.48-1.13c-5.28-1.13-10.55-2.28-15.83-3.39
		c-0.83-0.17-1.42-0.52-1.97-1.19c-3.98-4.85-8-9.67-12.01-14.5c-0.2-0.24-0.56-0.48-0.36-0.81c0.2-0.33,0.59-0.09,0.88-0.02
		c6.84,1.46,13.68,2.94,20.52,4.41c0.55,0.12,1.09,0.26,1.48,0.73c4.3,5.2,8.61,10.39,12.91,15.59
		C438.54,86.43,438.5,86.53,438.45,86.63z"/>
	<path class="st0" d="M404.75,377.49c2.01-2.44,3.9-4.74,5.8-7.05c2.18-2.65,4.38-5.29,6.55-7.96c0.68-0.84,1.48-1.34,2.57-1.57
		c6.61-1.37,13.21-2.8,19.82-4.21c0.34-0.07,0.8-0.34,1.01-0.02c0.27,0.4-0.21,0.71-0.45,1c-3.81,4.62-7.63,9.24-11.45,13.86
		c-0.67,0.82-1.4,1.44-2.52,1.67c-6.65,1.38-13.29,2.83-19.93,4.25C405.79,377.55,405.41,377.72,404.75,377.49z"/>
	<path class="st0" d="M440.37,84.87c-1.02-0.9-1.78-2.03-2.63-3.05c-3.33-3.98-6.64-7.97-9.96-11.96c-0.46-0.56-0.81-1.13-0.83-1.92
		c-0.22-7.18-0.44-14.36-0.48-21.55c0-0.19,0-0.39,0-0.93c1.41,1.68,2.63,3.12,3.84,4.57c2.96,3.56,5.9,7.14,8.88,10.68
		c0.65,0.77,0.98,1.57,0.99,2.6c0.05,5.15,0.12,10.3,0.27,15.45c0.05,1.63,0.22,3.26,0.18,4.9
		C440.63,84.02,440.78,84.44,440.37,84.87z"/>
	<path class="st0" d="M452.72,111.93c-3.68-1.36-7.16-2.65-10.64-3.94c-3.37-1.25-6.74-2.51-10.12-3.74
		c-0.66-0.24-1.2-0.56-1.58-1.19c-3.4-5.61-6.82-11.2-10.23-16.8c-0.08-0.12-0.1-0.28-0.24-0.68c1.94,0.71,3.69,1.35,5.43,1.99
		c5.13,1.91,10.26,3.84,15.39,5.74c0.67,0.25,1.18,0.6,1.56,1.22c3.4,5.61,6.81,11.2,10.22,16.8
		C452.58,111.43,452.6,111.55,452.72,111.93z"/>
	<path class="st0" d="M444.11,290.55c0.66,2.95,1.31,5.83,1.95,8.71c0.94,4.25,1.86,8.51,2.8,12.77c0.14,0.61,0.14,1.16-0.15,1.74
		c-2.82,5.78-5.62,11.58-8.44,17.37c-0.1,0.21-0.24,0.4-0.39,0.65c-0.5-0.3-0.45-0.78-0.54-1.17c-1.51-6.79-3-13.58-4.51-20.37
		c-0.13-0.57-0.12-1.08,0.14-1.62c2.82-5.79,5.62-11.58,8.44-17.37C443.53,291,443.6,290.7,444.11,290.55z"/>
	<path class="st0" d="M119,417.14c2.5-0.46,4.68-0.88,6.86-1.26c5-0.87,10-1.71,15-2.58c0.65-0.11,1.26-0.12,1.86,0.2
		c5.79,3.15,11.59,6.29,17.38,9.44c0.06,0.03,0.09,0.12,0.14,0.19c-0.02,0.35-0.3,0.32-0.52,0.36c-7.04,1.24-14.09,2.47-21.13,3.72
		c-0.53,0.09-1,0.11-1.5-0.16c-5.8-3.13-11.61-6.25-17.41-9.38C119.54,417.59,119.43,417.48,119,417.14z"/>
	<path class="st0" d="M424.09,356.36c2.39-3.52,4.63-6.83,6.87-10.13c1.46-2.15,2.94-4.29,4.37-6.46c0.47-0.71,1.03-1.16,1.85-1.41
		c6.6-2.07,13.19-4.17,19.79-6.25c0.31-0.1,0.71-0.44,0.96-0.02c0.18,0.3-0.18,0.58-0.35,0.84c-3.47,5.14-6.95,10.27-10.41,15.41
		c-0.41,0.61-0.87,1.1-1.61,1.34c-6.9,2.18-13.8,4.38-20.69,6.57C424.71,356.29,424.55,356.29,424.09,356.36z"/>
	<path class="st0" d="M464.1,138.19c-2.47-1.18-4.62-2.2-6.77-3.24c-4.46-2.16-8.91-4.33-13.37-6.48c-0.45-0.22-0.82-0.48-1.04-0.94
		c-2.84-5.9-5.69-11.8-8.54-17.7c-0.1-0.21-0.16-0.44-0.24-0.66c0.39-0.29,0.64,0.01,0.9,0.13c6.29,3.05,12.57,6.12,18.85,9.18
		c0.62,0.3,1.16,0.64,1.48,1.31c2.77,5.8,5.56,11.59,8.34,17.39C463.81,137.4,463.88,137.62,464.1,138.19z"/>
	<path class="st0" d="M147.08,431.51c0.31-0.48,0.69-0.5,1.02-0.61c6.56-2.17,13.13-4.33,19.69-6.5c0.62-0.21,1.21-0.32,1.86-0.08
		c6.08,2.21,12.17,4.41,18.25,6.62c0.22,0.08,0.42,0.2,0.65,0.32c-0.32,0.47-0.8,0.48-1.19,0.61c-6.49,2.15-12.98,4.28-19.46,6.43
		c-0.7,0.23-1.36,0.37-2.1,0.11c-5.97-2.17-11.94-4.33-17.92-6.5C147.64,431.82,147.4,431.67,147.08,431.51z"/>
	<path class="st0" d="M454.55,110.34c-1.11-1.78-2.19-3.49-3.24-5.21c-2.25-3.68-4.47-7.39-6.76-11.06c-0.65-1.05-0.85-2.08-0.7-3.3
		c0.81-6.38,1.56-12.77,2.33-19.15c0.07-0.61,0.2-1.22,0.33-1.99c0.8,0.65,1.1,1.41,1.5,2.07c3.1,5.04,6.16,10.11,9.25,15.16
		c0.27,0.44,0.33,0.85,0.27,1.36c-0.85,7.02-1.68,14.04-2.51,21.06C454.98,109.62,454.95,109.98,454.55,110.34z"/>
	<path class="st0" d="M161.7,421.21c-1.96-1.04-3.72-1.96-5.46-2.9c-4.08-2.19-8.15-4.41-12.24-6.58c-0.72-0.38-1.15-0.9-1.47-1.64
		c-2.71-6.31-5.46-12.61-8.19-18.92c-0.14-0.32-0.49-0.7-0.21-0.99c0.36-0.38,0.74,0.05,1.06,0.23c5.49,2.94,10.98,5.9,16.47,8.85
		c0.54,0.29,0.97,0.66,1.22,1.26c2.81,6.53,5.63,13.06,8.45,19.59C161.44,420.39,161.52,420.69,161.7,421.21z"/>
	<path class="st0" d="M442.01,332.8c0.3-0.7,0.55-1.36,0.86-1.99c2.53-5.25,5.09-10.49,7.61-15.75c0.38-0.8,0.92-1.34,1.72-1.73
		c6.04-2.91,12.07-5.86,18.11-8.79c0.11-0.05,0.21-0.11,0.33-0.15c0.33-0.1,0.69-0.44,1-0.15c0.33,0.31-0.02,0.67-0.17,0.97
		c-1.53,3.17-3.07,6.32-4.6,9.49c-1.13,2.34-2.29,4.66-3.37,7.02c-0.41,0.9-1.06,1.45-1.91,1.87c-5.96,2.9-11.91,5.82-17.87,8.73
		C443.21,332.55,442.75,332.91,442.01,332.8z"/>
	<path class="st0" d="M445.89,133.12c0.4-0.14,0.62,0.15,0.87,0.32c5.8,3.99,11.59,7.98,17.39,11.97c0.47,0.33,0.84,0.68,1.02,1.27
		c1.85,5.96,3.72,11.91,5.58,17.86c0.14,0.44,0.22,0.9,0.33,1.36c-0.6,0.13-0.87-0.23-1.18-0.44c-5.65-3.86-11.28-7.73-16.93-11.58
		c-0.7-0.48-1.15-1.03-1.4-1.85c-1.77-5.77-3.58-11.53-5.36-17.3C446.04,134.2,445.77,133.69,445.89,133.12z"/>
	<path class="st0" d="M453.28,306.63c-0.15-0.3-0.26-0.46-0.32-0.63c-2.23-6.84-4.46-13.68-6.69-20.52
		c-0.16-0.5-0.27-0.98-0.07-1.51c2.23-6.03,4.45-12.08,6.67-18.11c0.09-0.26,0.24-0.49,0.36-0.74c0.52,0.11,0.5,0.53,0.6,0.84
		c2.17,6.65,4.33,13.3,6.51,19.95c0.21,0.64,0.21,1.24-0.03,1.87c-2.24,6.07-4.48,12.15-6.72,18.23
		C453.54,306.18,453.44,306.34,453.28,306.63z"/>
	<path class="st0" d="M473.56,165.2c-0.46-0.22-0.45-0.62-0.55-0.94c-1.87-5.99-3.74-11.98-5.61-17.96
		c-0.18-0.59-0.28-1.14-0.05-1.75c2.59-6.71,5.16-13.42,7.75-20.14c0.06-0.14,0.16-0.27,0.24-0.41c0.52,0.07,0.49,0.51,0.59,0.81
		c1.87,5.99,3.73,11.98,5.6,17.97c0.21,0.67,0.22,1.32-0.04,1.99c-2.51,6.53-5,13.06-7.51,19.59
		C473.86,164.65,473.7,164.92,473.56,165.2z"/>
	<path class="st0" d="M189.61,429.17c-3.76-1.35-7.21-2.6-10.66-3.84c-2.74-0.99-5.48-1.99-8.23-2.97c-0.66-0.23-1.2-0.54-1.59-1.17
		c-3.61-5.85-7.26-11.68-10.87-17.52c-0.24-0.39-0.6-0.75-0.59-1.4c1.72,0.35,3.28,1.08,4.87,1.64c4.48,1.58,8.94,3.24,13.42,4.84
		c0.82,0.29,1.51,0.67,1.98,1.44c3.73,6.06,7.48,12.1,11.23,18.15C189.27,428.5,189.35,428.68,189.61,429.17z"/>
	<path class="st0" d="M482.61,275.67c-0.74,2.04-1.43,3.98-2.14,5.91c-1.57,4.27-3.16,8.54-4.73,12.82
		c-0.24,0.67-0.61,1.19-1.22,1.56c-6.1,3.73-12.19,7.48-18.29,11.22c-0.13,0.08-0.29,0.11-0.42,0.16c-0.33-0.36-0.05-0.64,0.05-0.91
		c2.17-5.93,4.35-11.86,6.51-17.79c0.21-0.58,0.48-1.09,1.02-1.43c6.23-3.83,12.46-7.65,18.7-11.48
		C482.17,275.7,482.3,275.71,482.61,275.67z"/>
	<path class="st0" d="M466.68,280.31c0.69-3.4,1.38-6.8,2.08-10.2c0.63-3.05,1.28-6.1,1.89-9.16c0.17-0.86,0.57-1.5,1.26-2.08
		c5.27-4.41,10.5-8.85,15.75-13.29c0.23-0.2,0.47-0.54,0.81-0.3c0.26,0.18,0.12,0.52,0.06,0.79c-1.28,6.23-2.56,12.45-3.84,18.67
		c-0.11,0.52-0.34,0.98-0.76,1.33c-5.67,4.79-11.34,9.58-17.01,14.37C466.85,280.4,466.77,280.35,466.68,280.31z"/>
	<path class="st0" d="M475.36,194.56c-1.59-1.33-2.94-2.44-4.27-3.57c-4.09-3.45-8.17-6.91-12.26-10.35
		c-0.73-0.62-1.22-1.32-1.41-2.28c-1.22-6.03-2.48-12.05-3.71-18.08c-0.07-0.34-0.24-0.77,0.13-0.99c0.35-0.2,0.56,0.2,0.79,0.39
		c5.33,4.51,10.66,9.03,16,13.54c0.46,0.38,0.74,0.81,0.85,1.38c1.29,6.3,2.58,12.6,3.87,18.9
		C475.4,193.72,475.36,193.96,475.36,194.56z"/>
	<path class="st0" d="M466.06,136.87c-0.46-0.96-0.92-1.92-1.38-2.88c-2.41-5-4.81-10.01-7.23-15.01c-0.27-0.56-0.4-1.09-0.26-1.72
		c1.58-7.1,3.14-14.2,4.71-21.29c0.03-0.14,0.13-0.28,0.26-0.55c1.17,2.36,2.29,4.6,3.38,6.85c1.77,3.67,3.51,7.35,5.3,11.01
		c0.39,0.8,0.49,1.53,0.29,2.41c-1.54,6.78-3.03,13.56-4.54,20.35c-0.06,0.26-0.15,0.52-0.23,0.78
		C466.26,136.83,466.16,136.85,466.06,136.87z"/>
	<path class="st0" d="M464.32,279.65c-0.41-0.16-0.47-0.55-0.63-0.86c-3.09-6.1-6.16-12.2-9.26-18.29c-0.43-0.83-0.51-1.6-0.32-2.52
		c1.28-6.02,2.51-12.05,3.76-18.08c0.08-0.38,0.06-0.8,0.37-1.11c0.45,0.2,0.52,0.63,0.69,0.97c3.09,6.15,6.16,12.3,9.24,18.44
		c0.33,0.66,0.52,1.28,0.35,2.06c-1.32,6.26-2.6,12.52-3.9,18.78C464.58,279.27,464.54,279.5,464.32,279.65z"/>
	<path class="st0" d="M477.73,193.88c-0.16-0.76-0.31-1.44-0.45-2.12c-1.15-5.64-2.28-11.28-3.46-16.91
		c-0.22-1.04-0.09-1.91,0.39-2.86c3.06-6.02,6.07-12.07,9.1-18.11c0.17-0.34,0.25-0.76,0.63-0.98c0.36,0.11,0.33,0.43,0.38,0.68
		c1.27,6.18,2.54,12.37,3.81,18.55c0.15,0.72,0.14,1.38-0.21,2.08c-3.15,6.24-6.28,12.5-9.41,18.75
		C478.35,193.27,478.26,193.64,477.73,193.88z"/>
	<path class="st0" d="M458.89,185.09c1.76,1.64,3.12,3.47,4.63,5.16c3.03,3.4,5.92,6.92,9,10.28c1.08,1.18,1.63,2.41,1.7,3.94
		c0.26,5.78,0.51,11.57,0.76,17.35c0.02,0.38,0.2,0.95-0.16,1.12c-0.49,0.23-0.73-0.37-0.99-0.67c-4.48-5.1-8.94-10.22-13.41-15.33
		c-0.43-0.49-0.76-1.01-0.78-1.7c-0.15-3.91-0.32-7.82-0.5-11.73c-0.11-2.27-0.28-4.54-0.41-6.81
		C458.68,186.22,458.56,185.74,458.89,185.09z"/>
	<path class="st0" d="M459.91,212.13c0.97,1.35,1.94,2.69,2.9,4.04c3.3,4.66,6.6,9.33,9.9,13.99c0.36,0.5,0.56,1.01,0.51,1.66
		c-0.17,2.43-0.27,4.86-0.41,7.29c-0.23,4.06-0.47,8.12-0.7,12.19c-0.01,0.15-0.06,0.29-0.16,0.71c-1.07-1.48-2.03-2.78-2.96-4.1
		c-3-4.24-5.91-8.55-9.03-12.69c-1.23-1.64-1.37-3.3-1.26-5.16c0.25-4.1,0.47-8.2,0.68-12.31c0.09-1.85,0.35-3.69,0.26-5.56
		C459.72,212.17,459.82,212.15,459.91,212.13z"/>
	<path class="st0" d="M474.76,251.91c-0.39-0.46-0.28-0.88-0.26-1.26c0.29-5.58,0.77-11.16,0.82-16.74
		c0.02-2.43,1.09-4.01,2.54-5.65c4.01-4.5,7.95-9.06,11.93-13.59c0.22-0.25,0.42-0.71,0.82-0.56c0.34,0.13,0.2,0.57,0.18,0.87
		c-0.29,5.7-0.7,11.4-0.83,17.1c-0.05,2.15-0.86,3.64-2.23,5.16c-4.2,4.66-8.27,9.42-12.4,14.14
		C475.19,251.56,475,251.7,474.76,251.91z"/>
	<path class="st0" d="M477.54,223.44c-0.5-2.9-0.38-5.53-0.58-8.15c-0.29-3.74-0.35-7.49-0.56-11.24c-0.07-1.3,0.27-2.36,1.04-3.43
		c3.94-5.43,7.8-10.92,11.69-16.39c0.11-0.16,0.25-0.3,0.44-0.52c0.45,0.54,0.45,1.14,0.48,1.7c0.19,4.07,0.3,8.13,0.54,12.2
		c0.12,2.03,0.19,4.07,0.27,6.1c0.02,0.45,0.07,0.86-0.21,1.26C486.33,211.05,482.01,217.14,477.54,223.44z"/>
	<path d="M241.28,38.46c2.19,2.91,4.82,5.45,7.68,7.76c0.25,0.2,0.49,0.4,0.74,0.61c0.36,0.31,0.57,0.69,0.35,1.16
		c-0.2,0.42-0.61,0.45-1.03,0.45c-8.41,0.07-15.96-4.92-19.08-12.7c-0.63-1.58-0.57-3.29-0.52-4.97c0.03-0.85,0.64-1.1,1.35-0.9
		c4.44,1.24,8.62,2.96,11.8,6.49c1.28,1.42,2.55,2.86,3.82,4.3c0.4,0.45,0.94,0.93,0.36,1.54c-0.61,0.64-1.17,0.15-1.66-0.29
		C243.82,40.77,242.55,39.61,241.28,38.46z"/>
	<path d="M312.99,65.97c-3.25,0-6.31-0.89-9.33-1.98c-1.09-0.39-2.15-0.84-3.34-0.28c-0.33,0.15-0.79,0.07-1.18,0.01
		c-1.32-0.2-2.31-1.03-2.44-1.99c-0.13-0.96,0.64-1.85,2-2.38c1.86-0.73,3.7-0.42,5.52,0.13c1.41,0.43,2.8,0.94,4.22,1.37
		c3.48,1.05,6.92,1.05,10.29-0.47c0.74-0.33,1.5-0.59,2.32-0.31c0.97,0.32,1.72,0.89,1.82,1.99c0.1,1.04-0.57,1.61-1.42,2
		C318.77,65.28,315.95,65.95,312.99,65.97z"/>
	<path d="M271.37,41.58c0.85-0.08,1.84,0.01,2.38,1.19c0.18,0.38,0.68,0.38,1.05,0.49c6.43,1.93,12.77,4.12,18.98,6.67
		c0.33,0.14,0.67,0.26,0.99,0.41c0.84,0.41,1.17,1.1,0.9,1.98c-0.27,0.85-0.96,1.14-1.81,1c-3.08-0.51-6.1-1.24-9.08-2.14
		c-5.06-1.54-9.91-3.58-14.57-6.08c-0.95-0.51-2.1-0.96-1.68-2.37C268.92,41.41,270.1,41.6,271.37,41.58z"/>
	<path d="M250.85,36.99c2.82,0.17,5.44,1.2,7.35,3.36c3.58,4.05,8.05,6.74,12.78,9.13c0.85,0.43,1.74,0.81,2.61,1.21
		c0.58,0.27,1.32,0.48,1.05,1.32c-0.27,0.85-1.04,0.57-1.64,0.48c-6.4-0.95-12.08-3.49-17.03-7.66c-2.14-1.8-4.43-3.42-6.31-5.51
		c-0.44-0.49-1.29-0.95-0.87-1.8C249.18,36.71,250.06,37.14,250.85,36.99z"/>
	<path d="M219.25,28.13c-0.26,1.73-0.4,3.42-0.16,5.12c0.08,0.6,0.21,1.27-0.53,1.54c-0.76,0.28-1.07-0.35-1.35-0.87
		c-1.6-2.92-2.5-6.04-2.73-9.35c-0.08-1.11,0.37-1.52,1.44-1.16c2.68,0.89,5.35,1.84,7.89,3.09c0.94,0.46,1.05,1.27,0.88,2.14
		c-0.51,2.52-0.81,5.04-0.48,7.6c0.07,0.52,0.05,1.09-0.57,1.3c-0.54,0.18-0.9-0.2-1.22-0.56c-1.1-1.26-1.79-2.72-2.14-4.36
		C219.95,31.11,219.59,29.62,219.25,28.13z"/>
	<path d="M242.14,50.84c-2.49-0.14-5.24-0.3-7.98-0.65c-0.4-0.05-0.85-0.17-1.11,0.22c-0.57,0.84-1.27,0.6-2.02,0.35
		c-3.11-1.04-6.13-2.29-9.04-3.81c-0.58-0.3-1.42-0.51-1.18-1.41c0.22-0.86,1.08-0.74,1.71-0.76c4.67-0.12,9.23,0.48,13.69,1.92
		c2.7,0.87,5.41,1.71,8.18,2.32c0.57,0.13,1.16,0.3,1.09,1.03c-0.07,0.73-0.69,0.78-1.27,0.78C243.6,50.84,243,50.84,242.14,50.84z"
		/>
	<path d="M296.67,43.78c1.6-0.03,2.73,0.07,3.02,1.62c0.08,0.44,0.6,0.49,0.96,0.64c2.97,1.18,5.98,2.27,9.02,3.26
		c0.38,0.12,0.76,0.25,1.13,0.39c0.79,0.29,1.35,0.8,1.19,1.7c-0.17,0.98-0.9,1.46-1.84,1.35c-1.38-0.17-2.76-0.45-4.11-0.78
		c-4.26-1.04-8.26-2.73-12.13-4.76c-0.73-0.38-1.26-0.9-1.1-1.79c0.16-0.87,0.8-1.25,1.62-1.36
		C295.29,43.91,296.17,43.83,296.67,43.78z"/>
	<path d="M208.41,41.57c2.64,0.32,5.29,0.65,7.93,0.97c0.24,0.03,0.48,0.03,0.71,0.09c0.5,0.12,0.93,0.35,0.88,0.95
		c-0.05,0.6-0.5,0.75-1.03,0.78c-1.53,0.09-3.03-0.18-4.54-0.28c-5.29-0.37-9.83-2.59-13.95-5.8c-0.22-0.17-0.45-0.34-0.62-0.56
		c-0.49-0.64-0.25-1.3,0.56-1.39c2.75-0.28,5.5-0.38,8.21,0.36c0.85,0.24,1.6,0.73,2.4,1.06c1.41,0.58,1.29,1.86,1.5,2.96
		c0.1,0.5-0.37,0.75-0.87,0.77c-0.4,0.01-0.8,0-1.2,0C208.41,41.52,208.41,41.54,208.41,41.57z"/>
	<path d="M287.35,55.02c2.12-0.06,4.58,0.08,7.04,0.45c0.93,0.14,1.6,0.5,1.64,1.55c0.04,1.07-0.66,1.46-1.55,1.65
		c-0.78,0.16-1.57,0.29-2.36,0.42c-0.94,0.15-1.84,0.26-2.28,1.38c-0.23,0.59-0.93,0.67-1.57,0.55c-2.73-0.51-5.3-1.48-7.75-2.76
		c-0.65-0.34-1.04-0.9-0.89-1.67c0.16-0.8,0.71-1.19,1.51-1.31C283.09,54.97,285.04,55.02,287.35,55.02z"/>
	<path d="M258.34,58.07c-1.12,0.11-2.13-0.24-3.11-0.73c-0.64-0.32-0.97-0.82-0.95-1.53c0.02-0.67,0.39-1.18,1-1.36
		c2.37-0.71,4.74-1.42,7.14-2c0.94-0.23,1.87,0.32,2.8,0.51c1.33,0.28,2.64,0.6,3.96,0.93c0.82,0.21,1.35,0.75,1.31,1.63
		c-0.04,0.87-0.6,1.41-1.45,1.5C265.48,57.39,261.9,57.72,258.34,58.07z"/>
	<path d="M309.01,58.38c-1.3-0.07-2.49-0.54-3.7-0.93c-0.62-0.2-0.95-0.73-0.98-1.38c-0.04-0.72,0.35-1.21,0.98-1.51
		c1.78-0.85,3.67-1.35,5.6-1.65c1.26-0.2,2.53-0.29,3.8-0.41c0.87-0.08,1.62,0.16,1.9,1.08c0.27,0.9-0.11,1.57-0.93,1.97
		c-1.79,0.88-3.59,1.74-5.39,2.59C309.89,58.34,309.46,58.43,309.01,58.38z"/>
	<path d="M322.71,48.2c-3.72-0.42-7.56-1.31-11.29-2.63c-1.08-0.38-1.17-1.13-0.26-1.86c1.23-0.99,2.69-1.35,4.24-1.37
		c0.46-0.01,0.99,0.13,1.01,0.64c0.03,0.76,0.52,0.9,1.07,1.05c1.96,0.54,3.91,1.09,5.88,1.61c0.75,0.2,1.79,0.18,1.67,1.28
		C324.89,48.07,323.92,48.26,322.71,48.2z"/>
	<path d="M327.81,54.26c0.54,0.26,1.3,0.33,1.2,1.14c-0.1,0.8-0.84,0.76-1.41,0.84c-1.19,0.18-2.39,0.17-3.58-0.08
		c-1.02-0.22-1.28-0.72-0.85-1.62c0.63-1.32,3.68-2.59,5.02-2.09c0.33,0.12,0.54,0.35,0.57,0.7
		C328.82,53.79,328.2,53.92,327.81,54.26z"/>
	<path d="M207.83,26.27c0.58,0.08,1.09,0.13,1.6,0.22c0.68,0.12,1.01,0.6,1.11,1.23c0.08,0.48,0.08,0.97-0.38,1.3
		c-0.54,0.38-1.05,0.2-1.55-0.11c-0.44-0.27-0.89-0.52-1.33-0.78c-0.46-0.27-0.93-0.57-0.75-1.2
		C206.73,26.26,207.33,26.26,207.83,26.27z"/>
	<path d="M233.4,363.57c-0.8,0-1.61,0.09-2.4-0.02c-1.38-0.19-2.09,0.39-2.36,1.7c-0.09,0.43-0.26,0.84-0.41,1.25
		c-0.35,0.95-0.92,1.86,0.93,1.85c0.97-0.01,0.52,1.06,0.6,1.66c0.07,0.53,0.03,1.12-0.71,1.13c-2,0.03-4,0.06-6-0.01
		c-1.03-0.03-0.78-0.94-0.8-1.57c-0.02-0.6-0.06-1.35,0.83-1.28c1.1,0.09,1.42-0.53,1.72-1.4c1.93-5.59,3.92-11.16,5.82-16.77
		c0.4-1.18,0.97-1.62,2.24-1.58c2.84,0.09,2.86,0.02,3.81,2.69c1.86,5.24,3.7,10.48,5.51,15.73c0.3,0.86,0.64,1.4,1.66,1.31
		c1.22-0.12,1.02,0.79,1.06,1.54c0.05,0.83-0.1,1.41-1.13,1.38c-1.76-0.04-3.52-0.02-5.28-0.01c-0.73,0-1.18-0.29-1.11-1.06
		c0.07-0.71-0.44-1.74,0.85-1.86c0.69-0.07,0.81-0.39,0.57-0.96c-0.02-0.04-0.03-0.08-0.04-0.11
		C237.71,363.57,237.71,363.57,233.4,363.57z M233.49,352.05c-0.1,0-0.2,0.01-0.31,0.01c-0.9,2.63-1.8,5.26-2.71,7.88
		c-0.22,0.64-0.01,0.88,0.64,0.87c1.51-0.02,3.03-0.02,4.54,0c0.58,0.01,0.84-0.19,0.63-0.78
		C235.37,357.37,234.43,354.71,233.49,352.05z"/>
	<path d="M276.17,359.88c0-2.36-0.03-4.72,0.01-7.08c0.02-0.88-0.19-1.35-1.18-1.32c-1.32,0.03-0.9-1.02-0.97-1.75
		c-0.08-0.8,0.26-1.17,1.09-1.17c4.68,0.02,9.35,0.02,14.03,0c0.85,0,1.11,0.4,1.09,1.18c-0.03,1.44-0.04,2.88,0,4.32
		c0.02,0.83-0.31,1.18-1.13,1.11c-0.32-0.03-0.64-0.03-0.96,0c-0.86,0.08-1.19-0.25-1.21-1.15c-0.04-2.52-0.07-2.52-2.57-2.52
		c-1.2,0-2.4,0.05-3.6-0.01c-1.01-0.05-1.47,0.27-1.42,1.36c0.07,1.36,0.06,2.72,0,4.08c-0.04,1.02,0.4,1.33,1.36,1.3
		c1.36-0.05,2.72,0.03,4.08-0.02c1.14-0.04,1.14,0.66,1.15,1.49c0,0.85-0.05,1.5-1.18,1.46c-1.44-0.06-2.88,0.01-4.32-0.02
		c-0.76-0.01-1.09,0.29-1.08,1.06c0.02,1.64,0.03,3.28,0,4.92c-0.02,0.8,0.27,1.16,1.12,1.15c1.8-0.04,3.6-0.04,5.4,0
		c0.85,0.02,1.16-0.34,1.08-1.15c-0.03-0.28,0-0.56,0-0.84c0.01-1.66,0.01-1.66,1.64-1.66c1.63,0,1.63,0,1.64,1.68
		c0,1.24-0.03,2.48,0.01,3.72c0.02,0.81-0.28,1.18-1.1,1.17c-4.68-0.01-9.35-0.02-14.03,0c-0.95,0-1.16-0.51-1.09-1.3
		c0.06-0.71-0.25-1.68,0.99-1.61c1.02,0.06,1.19-0.45,1.17-1.31C276.14,364.6,276.17,362.24,276.17,359.88z"/>
	<path d="M207.07,371.53c-3.78,0.3-8.18-2.79-9.67-7.17c-1.97-5.79-0.06-11.89,4.71-14.77c3.92-2.36,9.01-1.8,12.32,1.37
		c0.49,0.47,0.9,0.99,1.7,0.96c1.01-0.04,0.83,0.78,0.84,1.38c0,0.64,0.19,1.48-0.84,1.54c-1.3,0.08-2.45,0.15-3.5-1.15
		c-2.9-3.57-8.29-3.21-10.96,0.56c-2.81,3.96-2.19,9.9,1.31,12.64c3.58,2.8,8.15,1.97,10.56-1.89c0.27-0.43,0.32-1.27,1.06-1.09
		c0.8,0.19,1.64,0.48,2.22,1.11c0.35,0.38-0.03,0.84-0.24,1.21C214.54,369.72,211.52,371.54,207.07,371.53z"/>
	<path d="M253.4,359.84c0-2.36-0.02-4.72,0.01-7.08c0.01-0.81-0.17-1.29-1.11-1.28c-1.28,0.01-0.96-1-1.02-1.75
		c-0.05-0.78,0.25-1.18,1.1-1.17c4.72,0.02,9.44,0.02,14.15,0c0.77,0,1.08,0.35,1.07,1.09c-0.01,1.48-0.02,2.96,0,4.44
		c0.01,0.83-0.37,1.17-1.17,1.09c-0.24-0.02-0.48-0.03-0.72,0c-1.25,0.19-1.58-0.41-1.54-1.58c0.06-2.21,0.23-2.1-2.16-2.1
		c-1.44,0-2.88,0.02-4.32,0c-0.76-0.01-1.09,0.27-1.07,1.06c0.03,1.52,0.04,3.04,0,4.56c-0.02,0.86,0.37,1.11,1.16,1.1
		c1.76-0.03,3.52,0.04,5.28-0.02c1.18-0.04,1.23,0.64,1.25,1.54c0.02,0.94-0.26,1.41-1.28,1.38c-1.76-0.05-3.52,0.01-5.28-0.02
		c-0.82-0.01-1.14,0.3-1.12,1.13c0.04,1.64,0.03,3.28,0,4.92c-0.01,0.73,0.18,1.17,1,1.1c1.47-0.12,1.12,0.96,1.19,1.79
		c0.08,0.94-0.43,1.16-1.24,1.15c-1.68-0.02-3.36-0.03-5.04,0c-0.93,0.02-1.31-0.39-1.26-1.3c0.04-0.78-0.18-1.72,1.11-1.64
		c0.81,0.05,1.03-0.36,1.02-1.1C253.39,364.72,253.4,362.28,253.4,359.84z"/>
	<path d="M314.76,367.16c-4.03-0.01-7.37-3.34-7.35-7.33c0.02-4.01,3.44-7.43,7.35-7.36c4.04,0.07,7.39,3.42,7.37,7.36
		C322.1,363.83,318.74,367.17,314.76,367.16z M311.82,359.78c-0.03,1.72,1.17,2.95,2.89,2.98c1.69,0.02,2.97-1.21,3-2.89
		c0.03-1.64-1.28-2.99-2.91-3.01C313.17,356.83,311.85,358.12,311.82,359.78z"/>
	<path d="M183.65,359.86c0,4-3.35,7.31-7.38,7.3c-3.98-0.01-7.35-3.4-7.33-7.37c0.02-3.96,3.38-7.3,7.4-7.32
		C180.27,352.44,183.66,355.86,183.65,359.86z M179.24,359.87c0.01-1.67-1.26-2.99-2.89-3.02c-1.63-0.03-2.98,1.29-3,2.92
		c-0.02,1.68,1.23,2.96,2.91,2.98C178,362.77,179.23,361.57,179.24,359.87z"/>
	<path d="M283.72,342.11c0.55,0.15,1.43-0.32,1.69,0.36c0.21,0.56-0.62,0.92-1.03,1.33c-0.69,0.71-1.5,1.32-2.13,2.09
		c-0.78,0.95-1.77,0.93-2.82,0.88c-0.68-0.03-0.59-0.36-0.31-0.76c0.78-1.1,1.57-2.2,2.35-3.3
		C282.05,341.9,282.91,342.2,283.72,342.11z"/>
	<path d="M239.49,259.47c0-3.43,0.03-6.87-0.02-10.3c-0.01-1.07,0.31-1.52,1.43-1.45c1.47,0.08,2.95,0.02,4.43,0.02
		c3.87,0,6.03,1.85,6.21,5.73c0.17,3.91,0.18,7.83,0,11.74c-0.18,3.85-2.67,6.03-6.6,6.17c-1.36,0.05-2.72-0.03-4.07,0.03
		c-1.03,0.05-1.51-0.34-1.38-1.38c0-0.04,0-0.08,0-0.12C239.49,266.42,239.49,262.94,239.49,259.47z"/>
</g>
</svg>
