<!-- Generated by IcoMoon.io -->
<svg version="1.1" xmlns="http://www.w3.org/2000/svg" width="25" height="32" viewBox="0 0 25 32">
<title>logo-quebec</title>
<path d="M21.601 12.812c-2.354-0.216-6.357 1.53-6.357 9.064h-1.491c-0.002-0.111-0.003-0.241-0.003-0.372 0-2.676 0.454-5.247 1.288-7.638l-0.049 0.163c1.275-3.198 3.453-7.338-2.315-13.95-5.768 6.612-3.571 10.752-2.315 13.95 0.797 2.257 1.257 4.861 1.257 7.571 0 0.097-0.001 0.194-0.002 0.291l0-0.015h-1.55c0-7.534-3.924-9.28-6.376-9.064-5.219 0.471-4.846 8.79 0.118 8.731-0.49-1.373 0-2.923 1.177-3.159 3.512-0.804 3.473 3.492 3.473 3.492h-2.139v2.668h5.297c-0.168 1.375-1.109 2.493-2.369 2.916l-0.025 0.007c0.334 0.961 1.962 1.334 1.962 1.334 0.209 1.252 0.776 2.346 1.591 3.2l-0.002-0.002c0.814-0.854 1.387-1.946 1.603-3.161l0.005-0.037s1.511-0.373 1.962-1.334c-1.29-0.422-2.236-1.545-2.392-2.907l-0.002-0.016h5.18v-2.629h-2.139s0-4.297 3.492-3.492c0.827 0.371 1.393 1.188 1.393 2.137 0 0.372-0.087 0.724-0.242 1.036l0.006-0.014c4.866 0.020 5.219-8.299-0.039-8.77z"></path>
</svg>
