<!-- Generated by IcoMoon.io -->
<svg version="1.1" xmlns="http://www.w3.org/2000/svg" width="98" height="32" viewBox="0 0 98 32">
<title>logo-hera</title>
<path d="M0 0v31.782h3.523v-15.409h17.081v15.432h3.54v-31.802h-3.57v14.816h-17.089v-14.818h-3.485z"></path>
<path d="M84.685 0.871c-0.361-0.865-0.472-0.871-1.238-0.871h-3.217s0.386 0.919 0.453 1.081c0.161 0.406 0.24 0.766-0.014 1.363-3.366 7.916-11.565 27.305-11.565 27.305-0.91-0.043-1.579-0.46-2.156-1.251-0.846-1.165-2.791-7.612-3.004-8.215-0.804-2.298-1.907-3.495-3.393-4.555 2.298-1.644 3.917-3.886 4.342-6.069 0.609-3.115-0.301-7.16-3.737-8.733-1.118-0.537-2.427-0.864-3.809-0.895l-0.011-0c-1.759-0.031-4.654-0.031-6.972-0.031h-2.68v31.787h3.509v-30.281c0.841 0.008 3.293 0.032 5.95 0.075 1.275 0.022 2.542 0.657 3.084 1.246 1.475 1.603 2.032 4.435 1.513 6.737-0.475 2.108-1.791 4.137-3.435 4.802-1.202 0.484-2.862 0.46-3.965 0.446h-0.81v1.565h0.306c1.143 0 1.855-0.037 3.061 0.139 1.585 0.23 2.708 1.379 3.433 3.051 0.308 0.709 0.716 1.904 1.149 3.169 0.797 2.322 1.696 4.957 2.521 6.295 1.186 1.928 2.537 2.899 4.689 2.967 0.046 0.001 0.101 0.001 0.155 0.001 0.718 0 1.418-0.073 2.095-0.213l-0.067 0.012s4.071-9.61 4.702-11.122c0.099-0.23 0.164-0.28 0.411-0.28h12.53c0.259 0 0.331 0.052 0.438 0.308 1.435 3.416 2.988 7.088 4.45 10.494 0.077 0.178 0.29 0.591 0.615 0.6 0.811 0.025 3.687 0 3.687 0s-9.898-23.409-13.023-30.926zM88.17 18.844h-11.788l5.874-14.018zM44.989 31.139c-0.177-0.831-0.546-0.893-1.005-0.893-0.008 0-11.332 0.013-13.007 0.012v-13.885h12.472v-1.55h-12.463v-13.268s11.008 0 13.073-0.010c0.222 0 0.681-0.134 0.787-0.446s0.269-1.099 0.269-1.099h-17.679v31.797h17.687s-0.045-0.248-0.133-0.662z"></path>
</svg>
