<!-- Generated by IcoMoon.io -->
<svg version="1.1" xmlns="http://www.w3.org/2000/svg" width="17" height="32" viewBox="0 0 17 32">
<title>logo-p</title>
<path d="M12.328 22.149c0.522-0.912 0.84-2.001 0.864-3.161l0-0.007c0-0.259-0.029-0.49-0.029-0.662v-5.732c-0-0.015-0-0.033-0-0.051 0-0.205 0.011-0.408 0.031-0.607l-0.002 0.025c-0.014-0.833-0.182-1.623-0.477-2.348l0.016 0.044c-0.537-1.336-1.445-2.429-2.595-3.181l-0.026-0.016c-1.152-0.662-2.247-1.008-3.226-1.008h-6.884v26.527h5.012v-6.481c0-0.029 0-0.029 0.029-0.029h1.008c0.024-0 0.052-0.001 0.081-0.001 0.185 0 0.367 0.011 0.546 0.032l-0.022-0.002c0.473-0.019 0.918-0.071 1.353-0.153l-0.057 0.009c1.222-0.269 2.285-0.834 3.145-1.618l-0.005 0.005c0.469-0.462 0.879-0.982 1.219-1.549l0.020-0.035zM8.209 18.405c0 0.605-0.058 1.037-0.202 1.267-0.193 0.327-0.494 0.572-0.853 0.688l-0.011 0.003c0 0.086-0.403 0.115-1.239 0.115h-0.864c-0.029 0-0.029 0-0.029-0.029l0.029-9.966h1.095c0.605 0 1.037 0.058 1.267 0.202 0.327 0.193 0.572 0.494 0.688 0.853l0.003 0.011c0.086 0 0.115 0.403 0.115 1.239zM8.209 29.494h8.814v2.506h-8.814zM9.937 0l-8.814 0.893v2.535l8.814-0.922v-2.506z"></path>
</svg>
